<svg xmlns="http://www.w3.org/2000/svg" viewBox="0 0 435.7 512" fill="#2d93f9"><path d="M371.9 140.1h3.3c26.6 0 48.2-21.6 48.2-48.2V15.4C423.4 6.9 416.5 0 408 0H27.7c-8.5 0-15.4 6.9-15.4 15.4v76.5c0 26.6 21.6 48.2 48.2 48.2h3.3C23.3 180.5 0 235.6 0 294.1 0 414.3 97.7 512 217.9 512s217.9-97.7 217.9-217.9c-.1-58.5-23.4-113.6-63.9-154zM43.1 91.9V30.8h349.5v61.1c0 9.6-7.8 17.4-17.4 17.4H60.5c-9.6 0-17.4-7.8-17.4-17.4zm174.8 389.3c-103.1 0-187.1-83.9-187.1-187.1 0-61.8 30.2-119 80.9-154.1H324c50.8 35 80.9 92.3 80.9 154.1 0 103.2-83.9 187.1-187 187.1z"/><path d="M126.3 202.6c-24.5 24.5-37.9 57-37.9 91.6s13.5 67.1 37.9 91.6c25.2 25.2 58.4 37.9 91.6 37.9 33.2 0 66.3-12.6 91.6-37.9 24.5-24.5 37.9-57 37.9-91.6 0-34.6-13.5-67.1-37.9-91.6-50.6-50.5-132.7-50.5-183.2 0zm161.3 161.3c-38.5 38.5-101.1 38.5-139.6 0-18.6-18.6-28.9-43.4-28.9-69.8s10.3-51.1 28.9-69.8c19.2-19.2 44.5-28.9 69.8-28.9s50.5 9.6 69.8 28.9c18.6 18.6 28.9 43.4 28.9 69.8s-10.2 51.2-28.9 69.8z"/><path d="M170.6 246.8c-26.1 26.1-26.1 68.5 0 94.6 13 13 30.2 19.6 47.3 19.6s34.3-6.5 47.3-19.6c26.1-26.1 26.1-68.5 0-94.6-26.1-26-68.6-26-94.6 0zm72.8 72.9c-14.1 14.1-37 14.1-51 0-14.1-14.1-14.1-37 0-51 14.1-14.1 37-14.1 51 0 14 14 14 36.9 0 51zM110.3 70c0-8.5-6.9-15.4-15.4-15.4H81.8c-8.5 0-15.4 6.9-15.4 15.4s6.9 15.4 15.4 15.4h13.1c8.5 0 15.4-6.9 15.4-15.4zm65.5 15.4H332c8.5 0 15.4-6.9 15.4-15.4s-6.9-15.4-15.4-15.4H175.8c-8.5 0-15.4 6.9-15.4 15.4s6.9 15.4 15.4 15.4z"/></svg>