<svg xmlns="http://www.w3.org/2000/svg" viewBox="0 0 638.4 624.7" fill="#2d93f9"><path d="M320 460.7c-30.7 0-55.8-25-55.8-55.8s25-55.8 55.8-55.8c30.7 0 55.8 25 55.8 55.8s-25.1 55.8-55.8 55.8zm-82.2-137.3c-5.4 0-10.8-2.3-14.5-6.8-6.6-8-5.4-19.8 2.6-26.3 26.5-21.7 59.9-33.6 94.1-33.6 33.7 0 66.7 11.6 93 32.7 8.1 6.5 9.3 18.2 2.9 26.3-6.5 8-18.2 9.3-26.3 2.9-19.7-15.9-44.4-24.6-69.6-24.6-25.6 0-50.6 8.9-70.4 25.2-3.4 2.8-7.6 4.2-11.8 4.2zm-58.7-71.6c-5.4 0-10.8-2.3-14.5-6.8-6.6-8-5.4-19.8 2.6-26.3 43-35.2 97.2-54.6 152.8-54.6 54.7 0 108.4 18.9 151 53.2 8.1 6.5 9.3 18.2 2.9 26.3-6.5 8-18.2 9.3-26.3 2.9-36-29-81.3-44.9-127.6-44.9-46.9 0-92.8 16.4-129.1 46.1-3.5 2.7-7.7 4.1-11.8 4.1z"/><path d="M637 440s-24.3-57.5-24.7-58.2c-4.7-8-14.7-11.4-23.4-7.7-.1 0-.2.1-.3.1l-55.7 23.5c-9.5 4-14 15-10 24.5s15 14 24.5 10l18.4-7.7C524 522.6 427.1 587.3 319.2 587.3c-122.2 0-229-82.6-259.5-201-2.6-10-12.8-16-22.8-13.4-10 2.6-16 12.8-13.4 22.8 34.9 134.8 156.5 229 295.8 229 121.1 0 230-71.6 278.8-180.7l4.4 10.5c3 7.1 9.9 11.4 17.2 11.4 2.4 0 4.9-.5 7.3-1.5 9.5-3.9 14-14.9 10-24.4zM1.5 184.7s24.3 57.4 24.7 58.2c4.7 8 14.6 11.4 23.4 7.7.1 0 .2-.1.3-.1l55.7-23.5c9.5-4 14-15 10-24.5s-15-14-24.5-10l-18.4 7.7C114.6 102 211.4 37.3 319.3 37.3c122.2 0 229 82.6 259.6 201 2.6 10 12.8 16 22.8 13.4 10-2.6 16-12.8 13.4-22.8C580.1 94.2 458.5 0 319.2 0 198.1 0 89.2 71.6 40.4 180.7L36 170.2c-3-7.1-9.9-11.4-17.2-11.4-2.4 0-4.9.5-7.3 1.5-9.6 4-14 14.9-10 24.4z"/></svg>