<svg xmlns="http://www.w3.org/2000/svg" viewBox="0 0 444.1 512" fill="#2d93f9"><path d="M237.8 68.5v-37H269c20.8 0 20.8-31.5 0-31.5h-93.9c-20.8 0-20.8 31.5 0 31.5h31.2v37C91.2 76.6 0 172.8 0 290c0 122.4 99.6 222 222 222s222-99.6 222-222c.1-117.2-91.1-213.4-206.2-221.5zm-15.8 412C117 480.5 31.5 395 31.5 290S117 99.5 222 99.5 412.5 184.9 412.5 290c0 105-85.4 190.5-190.5 190.5z"/><path d="M202.5 346.7h-64.9c0-7.9 1.7-11.5 38.4-36.4 21.2-14.4 39.2-34.6 39.2-60.2 0-32.2-27.7-52.7-59.1-52.9-42.7-.2-61.6 33.1-58.1 54 4.3 25.8 40 17.6 40 1.1 0-25.4 36.1-22.9 36.1-1 0 11.9-10.5 22.9-39.2 43.5C89.4 327.4 95 337.2 95 369.6c0 8.4 11.2 13 18 13h89.4c16.3.1 17.2-35.9.1-35.9z"/><path d="M336.4 306h-9.9v-16.7c0-17.2-41-16.9-41 0V306h-19.3l43.8-87.9c7.1-17.1-25.8-31.3-36.3-10.3l-58 113.7c-5.1 8.2-1.6 22.5 11.8 22.5h57.9v25.7c0 17.4 41 17.2 41 0V344h9.9c16.1 0 18.1-38 .1-38z"/></svg>