<svg xmlns="http://www.w3.org/2000/svg" viewBox="0 0 512 512" fill="#2d93f9"><path d="M313 241h-2v-23c0-30.327-24.673-55-55-55s-55 24.673-55 55v23h-2c-8.284 0-15 6.716-15 15v78c0 8.284 6.716 15 15 15h114c8.284 0 15-6.716 15-15v-78c0-8.284-6.716-15-15-15zm-82-23c0-13.785 11.215-25 25-25s25 11.215 25 25v23h-50v-23zm67 101h-84v-48h84v48z"/><path d="M462 412a49.67 49.67 0 0 0-23.106 5.681l-34.878-34.877C433.287 348.685 451 304.374 451 256c0-48.374-17.713-92.685-46.984-126.803l34.878-34.877A49.682 49.682 0 0 0 462 100c27.57 0 50-22.43 50-50S489.57 0 462 0s-50 22.43-50 50a49.67 49.67 0 0 0 5.681 23.106l-34.878 34.877C348.685 78.713 304.374 61 256 61c-48.374 0-92.685 17.713-126.803 46.984L94.319 73.106A49.67 49.67 0 0 0 100 50c0-27.57-22.43-50-50-50S0 22.43 0 50s22.43 50 50 50a49.67 49.67 0 0 0 23.106-5.681l34.878 34.877C78.713 163.315 61 207.626 61 256c0 48.374 17.713 92.685 46.984 126.803L73.106 417.68A49.682 49.682 0 0 0 50 412c-27.57 0-50 22.43-50 50s22.43 50 50 50 50-22.43 50-50a49.67 49.67 0 0 0-5.681-23.106l34.878-34.877C163.315 433.287 207.626 451 256 451c48.374 0 92.685-17.713 126.803-46.984l34.878 34.877A49.677 49.677 0 0 0 412 462c0 27.57 22.43 50 50 50s50-22.43 50-50-22.43-50-50-50zm0-382c11.028 0 20 8.972 20 20s-8.972 20-20 20-20-8.972-20-20 8.972-20 20-20zM50 70c-11.028 0-20-8.972-20-20s8.972-20 20-20 20 8.972 20 20-8.972 20-20 20zm0 412c-11.028 0-20-8.972-20-20s8.972-20 20-20 20 8.972 20 20-8.972 20-20 20zm206-61c-90.981 0-165-74.019-165-165S165.019 91 256 91s165 74.019 165 165-74.019 165-165 165zm206 61c-11.028 0-20-8.972-20-20s8.972-20 20-20 20 8.972 20 20-8.972 20-20 20z"/></svg>