<svg xmlns="http://www.w3.org/2000/svg" viewBox="0 0 487.3 512" fill="#2d93f9"><path d="M368 397.1c-5.7 0-11.1-2.9-14.2-8.1-4.6-7.8-1.9-17.9 5.9-22.4 58.5-34.2 94.8-98.5 94.8-167.9 0-69.5-36.3-133.8-94.8-167.9-7.8-4.6-10.5-14.6-5.9-22.4 4.6-7.8 14.6-10.5 22.5-5.9 68.5 40 111.1 115.2 111.1 196.3 0 81.1-42.6 156.3-111.1 196.3-2.7 1.3-5.5 2-8.3 2z"/><path d="M328.4 324.2c-5.6 0-11.1-2.9-14.2-8.1-4.6-7.8-1.9-17.9 5.9-22.4 33.1-19.3 53.6-55.8 53.6-95.1s-20.5-75.8-53.6-95.1c-7.8-4.6-10.5-14.6-5.9-22.4 4.6-7.8 14.6-10.5 22.5-5.9 43.1 25.2 69.9 72.5 69.9 123.4 0 51-26.8 98.3-69.9 123.4-2.7 1.5-5.5 2.2-8.3 2.2zm-209 72.9c-2.8 0-5.7-.7-8.3-2.2C42.6 354.8 0 279.6 0 198.5c0-81 42.6-156.3 111.1-196.2 7.8-4.6 17.9-1.9 22.5 5.9 4.6 7.8 1.9 17.9-5.9 22.4-58.5 34.2-94.8 98.5-94.8 167.9s36.3 133.8 94.8 167.9c7.8 4.6 10.5 14.6 5.9 22.4-3.1 5.4-8.6 8.3-14.2 8.3z"/><path d="M158.9 324.2c-2.8 0-5.7-.7-8.3-2.2-43.1-25.2-69.9-72.5-69.9-123.4 0-51 26.8-98.3 69.9-123.4 7.8-4.6 17.9-1.9 22.5 5.9 4.6 7.8 1.9 17.9-5.9 22.4-33.1 19.3-53.6 55.7-53.6 95.1 0 39.3 20.6 75.8 53.6 95.1 7.8 4.6 10.5 14.6 5.9 22.4-3 5.2-8.5 8.1-14.2 8.1z"/><path d="M325.1 200.1c0-45.3-36.8-82.1-82.1-82.1s-82.1 36.8-82.1 82.1c0 39.6 28.3 72.8 65.7 80.4v215.1c0 9.1 7.4 16.4 16.4 16.4s16.4-7.3 16.4-16.4V280.5c37.4-7.6 65.7-40.8 65.7-80.4zM243 249.3c-27.2 0-49.3-22.1-49.3-49.3 0-27.2 22.1-49.3 49.3-49.3s49.3 22.1 49.3 49.3c0 27.2-22.1 49.3-49.3 49.3z"/></svg>