<svg xmlns="http://www.w3.org/2000/svg" width="20" height="19" viewBox="0 0 581.807 545.023" fill="#212121"><g data-name="Слой 2"><path d="M581.807 59.76V21.238A21.301 21.301 0 0 0 560.568 0H21.238A21.301 21.301 0 0 0 0 21.239v38.52zM0 98.48v26.935a32.92 32.92 0 0 0 32.823 32.824h516.16a32.92 32.92 0 0 0 32.824-32.824V98.48zm294.92 149.643a105.412 105.412 0 1 0 105.41 105.412 105.531 105.531 0 0 0-105.41-105.412zm0 173.519a68.543 68.543 0 1 1 68.542-68.544 68.621 68.621 0 0 1-68.542 68.544z"/><path d="M294.92 319.309a33.79 33.79 0 1 0 33.788 33.788 33.827 33.827 0 0 0-33.788-33.788z"/><path d="M65.287 192.334V315.39c0 126.298 103.334 229.633 229.632 229.633 126.299 0 229.633-103.335 229.633-229.633V192.334zm229.632 304.027c-78.755 0-142.827-64.072-142.827-142.826 0-78.756 64.072-142.827 142.827-142.827s142.828 64.071 142.828 142.827c0 78.754-64.072 142.826-142.828 142.826z"/><path d="M581.807 59.76V21.238A21.301 21.301 0 0 0 560.568 0H21.238A21.301 21.301 0 0 0 0 21.239v38.52zM0 98.48v26.935a32.92 32.92 0 0 0 32.823 32.824h516.16a32.92 32.92 0 0 0 32.824-32.824V98.48zm294.92 149.643a105.412 105.412 0 1 0 105.41 105.412 105.531 105.531 0 0 0-105.41-105.412zm0 173.519a68.543 68.543 0 1 1 68.542-68.544 68.621 68.621 0 0 1-68.542 68.544z"/><path d="M294.92 319.309a33.79 33.79 0 1 0 33.788 33.788 33.827 33.827 0 0 0-33.788-33.788z"/><path d="M65.287 192.334V315.39c0 126.298 103.334 229.633 229.632 229.633 126.299 0 229.633-103.335 229.633-229.633V192.334zm229.632 304.027c-78.755 0-142.827-64.072-142.827-142.826 0-78.756 64.072-142.827 142.827-142.827s142.828 64.071 142.828 142.827c0 78.754-64.072 142.826-142.828 142.826z"/></g></svg>