<svg xmlns="http://www.w3.org/2000/svg" width="512" height="512" viewBox="0 0 60 60" fill="#2d93f9"><path d="M24.928 31.551a1 1 0 0 0 .936-1.351c-.021-.058-2.152-5.84-.777-9.275 1.765-4.411 4.017-6.293 7.53-6.293a1 1 0 0 0 0-2c-5.707 0-8.091 4.309-9.388 7.55-1.663 4.157.663 10.454.762 10.72a1 1 0 0 0 .937.649zm7.166 5.049a1 1 0 0 0-1.35.423 4.625 4.625 0 0 1-2.317 2.177 1.789 1.789 0 0 1-1.491-.374 3.762 3.762 0 0 0-3.118-.687c-2.174.523-3.48 2.917-3.623 3.188a1 1 0 0 0 1.772.929 4.583 4.583 0 0 1 2.323-2.176 1.781 1.781 0 0 1 1.487.374c.886.68 2.028.932 3.118.687 2.174-.523 3.48-2.917 3.623-3.188a1 1 0 0 0-.424-1.353zm-12.869 1.879a.991.991 0 0 0 .986-1.148.64.64 0 0 1 .244-.3c.174-.125.358-.237.55-.333.225-.118.443-.248.655-.389 1.778-1.227 1.055-3.1.782-3.808a1 1 0 1 0-1.865.72c.428 1.11.226 1.249-.053 1.441a5.174 5.174 0 0 1-.477.28 6.112 6.112 0 0 0-.808.5 2.331 2.331 0 0 0-1 2.189c.078.485.495.844.986.848z"/><path d="M27.9 20.631a1 1 0 1 0 .2 1.991c.042 0 3.945-.351 5.947 1.866 1.175 1.3 1.5 3.3.975 5.942a1 1 0 0 0 .984 1.196 1 1 0 0 0 .979-.8c.661-3.3.169-5.888-1.459-7.685-2.693-2.966-7.426-2.529-7.626-2.51zM3 60a3 3 0 1 0 0-6 3 3 0 0 0 0 6zm0-4a1 1 0 1 1 0 2 1 1 0 0 1 0-2zm4-4a3 3 0 1 0 6 0 3 3 0 0 0-6 0zm4 0a1 1 0 1 1-2 0 1 1 0 0 1 2 0z"/><path d="M15.676 49.679c.878 2 2.457 3.61 4.44 4.528a6.3 6.3 0 0 0 2.378.46 8.955 8.955 0 0 0 6.406-3.134 20.134 20.134 0 0 0 2.233-3.3 18.292 18.292 0 0 1 2.014-3 35.039 35.039 0 0 1 5.283-4.518l.171-.128a17.529 17.529 0 0 0 5.638-7.829c.374-.943.691-1.907.95-2.888 1.783-6.81.957-15.543-4.91-19.7a13.312 13.312 0 0 0-13.892-.429c-5.247 2.9-7.819 8.858-8.475 13.461a12.47 12.47 0 0 0-.108 1.134c-.066.932-.051 1.855-.035 2.748 0 .386.012.773.012 1.155-.007.967-.807 1.861-1.581 2.725l-.257.289a11.714 11.714 0 0 0-2.793 6.191 18.656 18.656 0 0 0 1.019 8.613A2.962 2.962 0 0 0 14 47a3 3 0 0 0 1.676 2.679zM17 48a1 1 0 1 1 0-2 1 1 0 0 1 0 2zm-1.87-10.282a9.711 9.711 0 0 1 2.31-5.146l.249-.28c.926-1.034 2.079-2.321 2.091-4.052 0-.4-.007-.8-.013-1.2-.015-.889-.029-1.729.031-2.586.019-.322.046-.653.093-.977.588-4.129 2.858-9.449 7.464-12a11.433 11.433 0 0 1 11.767.312c5.06 3.584 5.688 11.615 4.131 17.557-.238.904-.53 1.792-.874 2.661a15.586 15.586 0 0 1-4.979 6.972l-.17.127a36.509 36.509 0 0 0-5.58 4.791 20.285 20.285 0 0 0-2.25 3.326 18.123 18.123 0 0 1-2 2.984c-1.552 1.755-4.179 3.1-6.538 2.145a6.2 6.2 0 0 1-2.814-2.552A2.994 2.994 0 0 0 17 44a2.963 2.963 0 0 0-1.284.3 15.909 15.909 0 0 1-.586-6.582zM44 0a1 1 0 0 0 0 2c7.729.008 13.992 6.271 14 14a1 1 0 0 0 2 0C59.99 7.168 52.832.01 44 0z"/><path d="M55 17a1 1 0 0 0 1-1c-.007-6.624-5.376-11.993-12-12a1 1 0 0 0 0 2c5.52.006 9.994 4.48 10 10a1 1 0 0 0 1 1z"/><path d="M50 16a1 1 0 0 0 2 0 8.009 8.009 0 0 0-8-8 1 1 0 0 0 0 2 6.006 6.006 0 0 1 6 6z"/></svg>