<svg xmlns="http://www.w3.org/2000/svg" width="17" height="28" viewBox="0 0 434.719 713.306" fill="#212121"><path d="M328.837 283.197h-97.433v-57.864a25.017 25.017 0 1 0-28.088 0v57.864h-97.433a26.41 26.41 0 0 0-26.334 26.333v377.443a26.41 26.41 0 0 0 26.334 26.333h222.954a26.41 26.41 0 0 0 26.333-26.333V309.53a26.41 26.41 0 0 0-26.333-26.333zm-9.655 235.233a26.41 26.41 0 0 1-26.333 26.334H141.87a26.41 26.41 0 0 1-26.333-26.334V346.387a26.41 26.41 0 0 1 26.333-26.334h150.98a26.41 26.41 0 0 1 26.333 26.334z"/><path d="M217.36 0A217.193 217.193 0 0 0 .018 207.43a16.474 16.474 0 1 0 32.909 1.603 184.63 184.63 0 0 1 368.866-.003 16.474 16.474 0 0 0 32.909-1.602A217.192 217.192 0 0 0 217.36 0z"/><path d="M217.36 60.803a153.502 153.502 0 0 0-153.605 146.6 16.51 16.51 0 1 0 32.984 1.579 120.75 120.75 0 0 1 241.242 0 16.51 16.51 0 0 0 32.983-1.574A153.503 153.503 0 0 0 217.36 60.803z"/><path d="M160.157 209.703a57.264 57.264 0 0 1 114.405-.002 15.741 15.741 0 0 0 31.448-1.475 88.746 88.746 0 0 0-177.3 0 15.741 15.741 0 1 0 31.447 1.477z"/></svg>