<svg xmlns="http://www.w3.org/2000/svg" width="448.586" height="448.586" fill="#2d93f9"><path d="M133.979 447.595h187.72c16.712 0 30.306-13.604 30.306-30.311V31.297c0-16.709-13.594-30.305-30.306-30.305h-187.72c-16.709 0-30.303 13.596-30.303 30.305v385.987c0 16.717 13.594 30.311 30.303 30.311zM115.525 31.297c0-10.168 8.287-18.456 18.453-18.456h187.72c10.187 0 18.454 8.287 18.454 18.456v385.987c0 10.182-8.268 18.459-18.454 18.459h-187.72c-10.166 0-18.453-8.277-18.453-18.459V31.297z"/><path d="M130.218 395.058h195.263a2.964 2.964 0 0 0 2.966-2.96V53.242a2.967 2.967 0 0 0-2.966-2.963H130.218a2.965 2.965 0 0 0-2.963 2.963v338.866a2.956 2.956 0 0 0 2.963 2.95zM141.08 56.205h173.54a7.904 7.904 0 0 1 7.901 7.901v317.129a7.904 7.904 0 0 1-7.901 7.901H141.08a7.903 7.903 0 0 1-7.899-7.901V64.106a7.893 7.893 0 0 1 7.899-7.901zm103.824 345.627h-34.129c-7.008 0-12.71 5.702-12.71 12.7v2.041c0 7.008 5.71 12.71 12.71 12.71h34.129c7.022 0 12.71-5.713 12.71-12.71v-2.041c0-6.998-5.687-12.7-12.71-12.7zm6.784 14.746a6.79 6.79 0 0 1-6.784 6.789h-34.129c-3.737 0-6.787-3.052-6.787-6.789v-2.036c0-3.737 3.057-6.779 6.787-6.779h34.129a6.788 6.788 0 0 1 6.784 6.779v2.036z"/><path d="M260.524 203.745v-20.967c0-8.76-3.737-16.983-10.526-23.155a35.254 35.254 0 0 0-5.647-4.18c-3.341-1.99-6.367-3.768-6.367-4.715v-1.714c0-4.71-4.631-8.391-10.555-8.391h-6.716c-5.923 0-10.552 3.681-10.552 8.391v2.062c0 1.138-3.344 3.364-6.906 5.87-8.47 5.957-13.937 15.311-13.937 25.824v21.132c0 4.362-1.688 11.007-3.798 14.823-4.41 7.992-11.314 20.454-15.257 27.578l-1.422 2.56c-4.075 7.338-4.55 14.37-1.343 19.819 3.209 5.443 9.585 8.439 17.974 8.439h10.667c4.359 0 9.407 3.397 12.946 5.956 4.489 3.256 11.171 5.286 18.763 5.286 7.602 0 14.289-2.03 18.778-5.286 3.529-2.559 8.582-5.956 12.949-5.956h11.669c8.435 0 14.655-2.915 17.498-8.216 2.834-5.297 1.818-12.07-2.838-19.104l-20.993-31.585c-2.436-3.624-4.387-10.101-4.387-14.471zm-39.811-57.353h6.716c2.75 0 4.796 1.389 4.796 2.63v.924c0 .513-1.609.6-3.626.404a37.435 37.435 0 0 0-3.673-.183c-1.542 0-3.06.094-4.542.285-2.498.307-4.474.314-4.474-.308v-1.122c-.001-1.249 2.056-2.63 4.803-2.63zm-2.978 134.629c-4.131-1.396-3.255-3.885 1.107-3.885h18.004c4.362 0 5.24 2.488 1.106 3.885-2.965 1.006-6.448 1.6-10.112 1.6-3.659 0-7.142-.603-10.105-1.6zm53.494-9.642h-85.757c-6.264 0-10.895-1.99-13.02-5.611-2.125-3.61-1.62-8.627 1.421-14.106 9.364-16.879 14.617-26.35 17.54-31.791 2.062-3.849 3.476-10.636 3.506-14.995l.16-22.089c0-14.805 13.391-26.853 29.854-26.853 8.028 0 15.554 2.828 21.201 7.965 5.585 5.062 8.647 11.771 8.647 18.895V205.5c0 4.359 1.955 10.846 4.372 14.479l21.947 33.032c3.447 5.175 4.352 9.871 2.559 13.208-1.797 3.316-6.215 5.16-12.43 5.16zM59.292 283.322c2.259 2.244 6.139 2.214 8.383-.041a5.935 5.935 0 0 0 1.714-4.199c0-1.584-.632-3.057-1.754-4.179-29.023-28.722-29.254-75.692-.536-104.708a5.816 5.816 0 0 0 1.721-4.205 5.825 5.825 0 0 0-1.77-4.161 5.67 5.67 0 0 0-1.706-1.186 5.93 5.93 0 0 0-6.667 1.216c-33.306 33.67-33.047 88.157.615 121.463z"/><path d="M47.244 315.461a5.841 5.841 0 0 0 1.699-4.189 5.78 5.78 0 0 0-1.752-4.169C.405 260.776.019 185.038 46.338 138.247c2.29-2.315 2.275-6.061-.048-8.392a5.968 5.968 0 0 0-1.714-1.16 5.945 5.945 0 0 0-6.667 1.231c-50.909 51.415-50.49 134.673.947 185.605 2.274 2.245 6.139 2.179 8.388-.07zm331.952-36.379c0 1.595.609 3.077 1.712 4.199 2.239 2.255 6.118 2.285 8.378.041 33.662-33.307 33.921-87.793.615-121.455a5.93 5.93 0 0 0-6.668-1.216 5.733 5.733 0 0 0-1.706 1.186 5.819 5.819 0 0 0-1.772 4.161 5.807 5.807 0 0 0 1.727 4.205c28.716 29.016 28.478 75.99-.538 104.706a5.874 5.874 0 0 0-1.748 4.173z"/><path d="M401.393 307.092a5.826 5.826 0 0 0-1.752 4.175 5.819 5.819 0 0 0 1.701 4.184c2.244 2.255 6.104 2.315 8.389.066 51.435-50.933 51.861-134.19.944-185.605a5.934 5.934 0 0 0-6.667-1.231 6.354 6.354 0 0 0-1.712 1.16c-2.325 2.331-2.341 6.076-.051 8.389 46.312 46.808 45.936 122.546-.852 168.862z"/></svg>