<svg xmlns="http://www.w3.org/2000/svg" viewBox="0 0 357.8 512" fill="#2d93f9"><path d="M178.9 512c-42.2 0-81.8-16.4-111.5-46.1-2.9-2.9-2.9-7.7 0-10.6 2.9-2.9 7.6-2.9 10.6 0 26.9 26.9 62.7 41.7 100.9 41.7s74-14.8 100.9-41.7c3-2.9 7.7-2.8 10.6.2 2.8 2.9 2.8 7.5 0 10.4-29.7 29.7-69.3 46.1-111.5 46.1z"/><path d="M178.9 467.8c-29 0-58.1-11.1-80.2-33.2-2.9-2.9-2.9-7.7 0-10.6 2.9-2.9 7.6-2.9 10.6 0 38.4 38.4 100.8 38.4 139.2 0 3-2.9 7.7-2.8 10.6.2 2.8 2.9 2.8 7.5 0 10.4-22.1 22.1-51.1 33.2-80.2 33.2z"/><path d="M178.9 423.5c-17.7 0-35.4-6.7-48.9-20.2-2.9-2.9-2.9-7.7 0-10.6 2.9-2.9 7.6-2.9 10.6 0 21.1 21.1 55.5 21.1 76.6 0 3-2.9 7.7-2.8 10.6.2 2.8 2.9 2.8 7.5 0 10.4-13.5 13.5-31.2 20.2-48.9 20.2zm171.4-345c4.1 0 7.5-3.4 7.5-7.5V54c0-29.8-24.2-54-54-54H54C24.2 0 0 24.2 0 54v206.1c0 26.4 19.1 48.5 44.2 53.1L40 328.6c-2.1 7.8-.5 15.9 4.4 22.3S56.7 361 64.8 361h228.4c8.1 0 15.5-3.7 20.4-10.1 4.9-6.4 6.5-14.6 4.4-22.3l-4.2-15.4c25.1-4.6 44.2-26.7 44.2-53.1V101c0-4.1-3.4-7.5-7.5-7.5s-7.5 3.4-7.5 7.5v159.1c0 21.5-17.5 39-39 39H102.7c-4.1 0-7.5 3.4-7.5 7.5s3.4 7.5 7.5 7.5h195.6l5 18.4c.9 3.2.2 6.7-1.8 9.3-2 2.7-5.2 4.2-8.5 4.2H64.7c-3.3 0-6.5-1.5-8.5-4.2-2-2.6-2.7-6.1-1.8-9.3l5-18.4h13.3c4.1 0 7.5-3.4 7.5-7.5s-3.4-7.5-7.5-7.5H54c-21.5 0-39-17.5-39-39V54c0-21.5 17.5-39 39-39h249.9c21.5 0 39 17.5 39 39v17c-.1 4.1 3.3 7.5 7.4 7.5z"/><path d="M206.2 165.2c0-15.3-12.4-27.7-27.7-27.7s-27.7 12.4-27.7 27.7 12.4 27.7 27.7 27.7c15.3 0 27.7-12.4 27.7-27.7zm-40.3 0c0-7 5.7-12.7 12.7-12.7s12.7 5.7 12.7 12.7-5.7 12.7-12.7 12.7-12.7-5.7-12.7-12.7zm-5.3-31.9c5.5-3.1 11.7-4.7 18-4.7 6.4 0 12.7 1.7 18.2 4.9 1.7 1 3.8 1.3 5.7.7 1.9-.5 3.6-1.8 4.5-3.5l36.9-64.4c1.2-2.2 1.6-4.8.9-7.2-.7-2.4-2.3-4.5-4.5-5.7-38.8-21.3-84.9-21.2-123.5.5-2.2 1.2-3.8 3.3-4.5 5.7-.7 2.4-.3 5 .9 7.2l37.1 63.8c2.2 3.5 6.7 4.7 10.3 2.7zM228 63.9l-30.5 53.3c-6-2.4-12.4-3.6-18.9-3.6-6.4 0-12.7 1.2-18.6 3.5l-30.8-52.8c31.2-15.6 67.4-15.7 98.8-.4zM54.6 160.4c-1.8 1.8-2.7 4.2-2.7 6.7.4 21.5 6.4 42.7 17.2 61.4 10.9 18.7 26.4 34.4 44.9 45.3 2.2 1.3 4.7 1.6 7.2 1 2.4-.6 4.5-2.2 5.8-4.4l36.2-63.1c2.1-3.6.8-8.2-2.8-10.2-11.4-6.5-18.5-18.7-18.5-31.8v-.4c0-4.1-3.3-7.5-7.4-7.6h-.1l-73.1.3c-2.6-.1-5 1-6.7 2.8zm72.8 11.9c1.8 13.2 8.8 25.3 19.3 33.6l-29.8 52c-14.2-9.4-26.1-22.1-34.8-36.9-8.6-14.8-13.8-31.5-14.9-48.5l60.2-.2zM231.6 270c1.3 2.2 3.4 3.7 5.8 4.4 2.4.6 5 .3 7.2-1.1 37.8-22.8 60.8-62.9 61.4-107.1 0-2.5-.9-4.9-2.7-6.7-1.8-1.8-4.2-2.8-6.7-2.8l-73.8.3c-2 0-3.9.8-5.3 2.3-1.4 1.4-2.2 3.4-2.1 5.4v.6c0 12.9-6.6 24.7-17.8 31.4-3.5 2.1-4.7 6.7-2.6 10.2l36.6 63.1zm-1.8-98.1l60.9-.2c-2.2 34.9-20.2 66.2-49.1 85.7l-30.4-52.2c10.2-8.3 16.9-20.3 18.6-33.3zm66.7-15.2z"/></svg>