<svg xmlns="http://www.w3.org/2000/svg" viewBox="0 0 41.4 68"><path fill="#FFF" d="M31.3 27H22v-5.5c1.1-.7 1.4-2.2.6-3.3-.7-1.1-2.2-1.4-3.3-.6s-1.4 2.2-.6 3.3c.2.2.4.5.6.6V27H10c-1.4 0-2.5 1.1-2.5 2.5v36c0 1.4 1.1 2.5 2.5 2.5h21.3c1.4 0 2.5-1.1 2.5-2.5v-36c.1-1.4-1.1-2.5-2.5-2.5zm-.9 22.4c0 1.4-1.1 2.5-2.5 2.5H13.5c-1.4 0-2.5-1.1-2.5-2.5V33c0-1.4 1.1-2.5 2.5-2.5h14.4c1.4 0 2.5 1.1 2.5 2.5v16.4z"/><path fill="#FFF" d="M20.7 0C9.6 0 .5 8.7 0 19.8c0 .9.6 1.6 1.5 1.6s1.6-.6 1.6-1.5c.4-9.7 8.7-17.2 18.4-16.8 9.1.4 16.3 7.7 16.8 16.8 0 .9.8 1.5 1.6 1.5.9 0 1.5-.8 1.5-1.6C40.9 8.7 31.8 0 20.7 0z"/><path fill="#FFF" d="M20.7 5.8c-7.8 0-14.3 6.1-14.6 14 0 .9.6 1.6 1.5 1.6s1.6-.6 1.6-1.5c.3-6.4 5.7-11.3 12-11 5.9.3 10.7 5 11 11 0 .9.8 1.5 1.6 1.5.9 0 1.5-.8 1.5-1.6-.3-7.9-6.7-14-14.6-14z"/><path fill="#FFF" d="M15.3 20c.1-3 2.7-5.3 5.7-5.2 2.8.1 5.1 2.4 5.2 5.2 0 .8.7 1.5 1.6 1.4.8 0 1.5-.7 1.4-1.6-.2-4.7-4.2-8.3-8.8-8.1-4.4.2-7.9 3.7-8.1 8.1 0 .8.6 1.5 1.4 1.6s1.5-.6 1.6-1.4z"/></svg>