<svg xmlns="http://www.w3.org/2000/svg" viewBox="0 0 511 433.5" fill="#2d93f9"><path d="M289.3 114.4c-4.1-5.2-10.4-8.2-17-8.2-9.6.1-18 6.4-20.9 15.5-5.9 18.7-17.9 34.9-33.9 46.2l-19.8 13.7c-6.5 4.5-10.3 11.9-10.2 19.8v65.4c-.1 9.7 7.6 17.7 17.4 17.8h83.6c11-.2 20.4-8 22.7-18.8l12.1-57.2c.1-.6.2-1.2.2-1.8v-7.6c.1-10.9-7.3-20.5-17.9-23.2-1-.4-2.1-.6-3.3-.6H278c7.4-13 12.8-27 15.9-41.6 1.5-6.8-.1-13.9-4.6-19.4zm11 78.1c3.6.2 6.4 3.3 6.2 6.9v6.8l-11.9 56.3c-.5 3-3 5.2-6 5.3H205c-.3-.2-.4-.5-.4-.8v-65.5c0-2.3 1-4.5 2.9-5.8l19.8-13.7c19.1-13.4 33.3-32.7 40.4-55 .6-2.1 2.5-3.6 4.8-3.7 1.5 0 2.8.7 3.7 1.9 1.1 1.4 1.6 3.3 1.2 5.1-3.2 15-9 29.2-17.3 42.1l-4.5 7c-2.5 3.9-1.4 9.2 2.6 11.7 1.4.9 3 1.3 4.6 1.3l37.5.1zM159.2 306c4.7 0 8.5-3.8 8.5-8.5 0-2.3-.9-4.4-2.5-6-38.7-38.4-41.5-100-6.4-141.7l6.9-8.3c2.9-3.7 2.3-9-1.4-11.9-3.6-2.8-8.7-2.4-11.7 1.1l-7 8.3c-40.8 48.4-37.5 120.1 7.5 164.6 1.7 1.5 3.9 2.4 6.1 2.4z"/><path d="M122 104l11.3-13.6c3-3.6 2.4-9-1.2-12-3.6-2.9-8.9-2.5-11.9 1.1l-11.3 13.6C44.2 170 49.4 283.7 120.7 354.4c3.4 3.3 8.8 3.2 12-.2 3.2-3.3 3.2-8.5 0-11.8C67.7 277.9 63 174.2 122 104z"/><path d="M94.9 433.5c4.7 0 8.5-3.8 8.5-8.5 0-2.3-.9-4.4-2.5-6C-3.9 315.2-11.4 148.3 83.5 35.4l17.9-21.5c3-3.6 2.5-9-1.1-12s-9-2.5-12 1.1L70.4 24.6C-30.2 144.2-22.1 321 88.9 431c1.6 1.6 3.7 2.5 6 2.5zm250.3-141.4c-3.1 3.5-2.7 8.9.8 12 3.5 3.1 8.9 2.7 12-.8l.3-.3 7-8.3c40.8-48.4 37.5-120.1-7.5-164.6-3.4-3.3-8.8-3.1-12 .2-3.2 3.3-3.2 8.5 0 11.8 38.7 38.4 41.5 100 6.4 141.7l-7 8.3z"/><path d="M384.2 357c2.5 0 4.9-1.1 6.5-3.1l11.3-13.6c64.7-76.9 59.5-190.6-11.8-261.3-3.3-3.3-8.7-3.3-12 0s-3.3 8.7 0 12c65.1 64.5 69.8 168.3 10.8 238.4L377.7 343c-3 3.6-2.5 9 1.1 12 1.5 1.3 3.4 2 5.4 2z"/><path d="M410.1 2.5c-3.3 3.3-3.3 8.7 0 12C514.9 118.3 522.4 285.2 427.5 398l-17.9 21.5c-3 3.6-2.5 9 1.1 12s9 2.5 12-1.1l17.9-21.5c100.6-119.6 92.6-296.4-18.5-406.4-3.3-3.3-8.7-3.3-12 0zM332 97.8c4.7 0 8.5-3.8 8.5-8.5s-3.8-8.5-8.5-8.5-8.5-3.8-8.5-8.5-3.8-8.5-8.5-8.5-8.5 3.8-8.5 8.5-3.8 8.5-8.5 8.5-8.5 3.8-8.5 8.5 3.8 8.5 8.5 8.5 8.5 3.8 8.5 8.5 3.8 8.5 8.5 8.5 8.5-3.8 8.5-8.5 3.8-8.5 8.5-8.5z"/></svg>