<svg xmlns="http://www.w3.org/2000/svg" viewBox="0 0 310.285 310.285" fill="#8c8c8c"><path d="M264.845 45.441C235.542 16.139 196.582 0 155.143 0S74.743 16.139 45.44 45.441C16.138 74.743 0 113.703 0 155.143c0 41.439 16.138 80.399 45.44 109.701 29.303 29.303 68.262 45.44 109.702 45.44s80.399-16.138 109.702-45.44c29.302-29.302 45.44-68.262 45.44-109.701.001-41.44-16.137-80.4-45.439-109.702zm-75.143 112.544l38.669 38.669c3.12 3.119 3.12 8.194 0 11.313L206.038 230.3a7.945 7.945 0 0 1-5.657 2.337c-2.141 0-4.15-.83-5.657-2.337l-38.669-38.669c-.748-.746-2.08-.746-2.829 0L114.557 230.3a7.945 7.945 0 0 1-5.657 2.337 7.95 7.95 0 0 1-5.657-2.336L80.91 207.967a7.944 7.944 0 0 1-2.337-5.656c0-2.142.83-4.15 2.337-5.657l38.669-38.669c.766-.767.766-2.063-.001-2.829l-40.302-40.302a7.945 7.945 0 0 1-2.337-5.657c0-2.141.83-4.149 2.337-5.656l22.333-22.333a7.945 7.945 0 0 1 5.657-2.337c2.141 0 4.149.83 5.656 2.337l40.303 40.303c.749.747 2.081.746 2.828 0l40.303-40.303a7.945 7.945 0 0 1 5.657-2.337c2.141 0 4.149.83 5.656 2.337l22.333 22.333a7.944 7.944 0 0 1 2.337 5.656c0 2.142-.83 4.15-2.337 5.658L189.7 155.156c-.764.767-.764 2.063.002 2.829z"/></svg>