<svg xmlns="http://www.w3.org/2000/svg" width="68" height="68" fill="#060606" viewBox="0 0 512 512"><path d="M155.869 356.686l-.294-.293c-3.914-3.895-10.245-3.881-14.142.034-3.896 3.915-3.881 10.246.034 14.142l.327.325a9.966 9.966 0 0 0 7.037 2.896c2.575 0 5.15-.989 7.105-2.962 3.887-3.924 3.857-10.255-.067-14.142z"/><path d="M370.553 141.449c-63.164-63.164-165.94-63.164-229.104 0-51.708 51.708-62.365 132.03-25.917 195.328 2.756 4.786 8.871 6.431 13.656 3.676 4.786-2.756 6.432-8.87 3.676-13.656-31.945-55.477-22.599-125.879 22.727-171.206 55.366-55.366 145.454-55.366 200.819 0 55.366 55.366 55.366 145.453 0 200.819-45.602 45.602-116.298 54.777-171.919 22.313-4.771-2.785-10.894-1.175-13.678 3.596-2.784 4.77-1.174 10.894 3.596 13.678 25.379 14.813 53.503 22.027 81.451 22.027 41.938 0 83.474-16.253 114.693-47.472 63.163-63.164 63.163-165.939 0-229.103z"/><path d="M511.965 212.062a10 10 0 0 0-8.435-9.873l-36.913-5.849-19.583-47.227 21.943-30.254a10 10 0 0 0-1.026-12.944L405.93 43.936a9.999 9.999 0 0 0-12.946-1.017l-30.225 21.957-47.26-19.555-5.874-36.894A10.001 10.001 0 0 0 299.749 0h-.004l-87.683.036a10.001 10.001 0 0 0-9.873 8.435l-5.848 36.913-47.227 19.583-30.254-21.943a10 10 0 0 0-12.944 1.026l-61.979 62.021a10 10 0 0 0-1.017 12.946l21.957 30.225-19.555 47.26-36.894 5.874A10 10 0 0 0 0 212.255l.036 87.682a10 10 0 0 0 8.435 9.873l36.913 5.849 19.583 47.227-21.943 30.254a10 10 0 0 0 1.026 12.944l62.021 61.979a10 10 0 0 0 12.946 1.017l30.225-21.957 47.26 19.555 5.874 36.894a10 10 0 0 0 9.875 8.428h.004l87.682-.037a10.001 10.001 0 0 0 9.873-8.435l5.849-36.913 47.227-19.583 30.254 21.943a9.998 9.998 0 0 0 12.944-1.026l61.979-62.021a10 10 0 0 0 1.017-12.946l-21.957-30.225 19.555-47.26 36.894-5.874a10 10 0 0 0 8.428-9.879l-.035-87.682zm-53.958 84.564a9.999 9.999 0 0 0-7.668 6.052l-23.835 57.604a10 10 0 0 0 1.15 9.701l20.229 27.846-49.91 49.944-27.875-20.217a10.005 10.005 0 0 0-9.702-1.143l-57.568 23.872a9.999 9.999 0 0 0-6.046 7.672l-5.389 34.009-70.607.03-5.412-33.99a9.999 9.999 0 0 0-6.052-7.668l-57.604-23.835a9.995 9.995 0 0 0-9.7 1.15l-27.846 20.229-49.944-49.91 20.217-27.875a10 10 0 0 0 1.142-9.702l-23.871-57.568a9.999 9.999 0 0 0-7.672-6.046l-34.01-5.389-.029-70.607 33.99-5.412a9.999 9.999 0 0 0 7.668-6.052l23.835-57.604a10 10 0 0 0-1.15-9.701L64.119 114.17l49.91-49.944 27.875 20.217a9.998 9.998 0 0 0 9.702 1.143l57.568-23.872a10 10 0 0 0 6.046-7.672l5.388-34.01 70.608-.029 5.412 33.99a9.999 9.999 0 0 0 6.052 7.668l57.604 23.835a10.005 10.005 0 0 0 9.701-1.15l27.846-20.229 49.944 49.91-20.217 27.875a10 10 0 0 0-1.142 9.702l23.871 57.568a9.999 9.999 0 0 0 7.672 6.046l34.01 5.389.029 70.607-33.991 5.412z"/><path d="M347.102 268.458c-12.507-11.363-29.315-16.298-45.907-13.716l-43.917-43.917c2.671-17.396-3.066-35.298-15.641-47.874a55.603 55.603 0 0 0-60.052-12.304 9.998 9.998 0 0 0-3.355 16.355l14.5 14.5c3.069 3.069 3.069 8.063 0 11.133-3.069 3.07-8.063 3.07-11.133 0l-14.55-14.551a9.997 9.997 0 0 0-16.34 3.318c-8.719 21.532-3.014 46.503 14.195 62.138 12.52 11.377 29.341 16.311 45.951 13.711l43.877 43.878c-2.688 17.41 3.046 35.329 15.635 47.919a55.549 55.549 0 0 0 39.323 16.31 55.728 55.728 0 0 0 20.891-4.071 10 10 0 0 0 3.326-16.343l-14.434-14.435c-3.069-3.069-3.069-8.063 0-11.133 3.069-3.07 8.063-3.07 11.133 0l14.405 14.405a9.998 9.998 0 0 0 16.352-3.347c8.622-21.488 2.892-46.394-14.259-61.976zm-2.357 36.777c-10.868-10.867-28.551-10.868-39.418 0s-10.867 28.55 0 39.417l.488.489a35.589 35.589 0 0 1-21.309-10.235c-8.971-8.971-12.508-22.172-9.229-34.452a9.998 9.998 0 0 0-2.59-9.65l-51.512-51.512a10 10 0 0 0-9.635-2.595c-11.843 3.145-24.251.167-33.192-7.957-6.567-5.969-10.522-14.057-11.469-22.537l.575.575c10.868 10.867 28.55 10.868 39.418 0 10.867-10.868 10.867-28.55 0-39.417l-.473-.473a35.589 35.589 0 0 1 21.095 10.207c8.961 8.961 12.5 22.15 9.237 34.42a10 10 0 0 0 2.593 9.642l51.542 51.542a10 10 0 0 0 9.626 2.597c11.831-3.126 24.228-.148 33.16 7.966 6.507 5.912 10.451 13.917 11.441 22.321l-.348-.348zm2.598-120.646c-16.481-21.053-39.845-35.862-65.79-41.7-5.386-1.213-10.739 2.172-11.951 7.561-1.212 5.389 2.172 10.739 7.561 11.951 21.457 4.828 40.788 17.086 54.432 34.517a9.982 9.982 0 0 0 7.881 3.836 9.956 9.956 0 0 0 6.157-2.126c4.349-3.404 5.115-9.69 1.71-14.039zm19.105 36.06l-.146-.452c-1.697-5.256-7.332-8.138-12.589-6.443-5.256 1.697-8.141 7.333-6.443 12.589l.127.392c1.357 4.249 5.29 6.96 9.523 6.96a9.996 9.996 0 0 0 3.045-.477c5.261-1.681 8.164-7.308 6.483-12.569z"/></svg>