<svg version="1.1" id="Слой_1" xmlns="http://www.w3.org/2000/svg" x="0" y="0" viewBox="0 0 44 33" xml:space="preserve"><style>.st0{fill:#e0e0e0}</style><g id="surface1"><path class="st0" d="M3.5 33h37c1.9 0 3.5-1.6 3.5-3.5v-26C44 1.6 42.4 0 40.5 0h-37C1.6 0 0 1.6 0 3.5v26C0 31.4 1.6 33 3.5 33z"/><path d="M24 33h16.5c1.9 0 3.5-1.6 3.5-3.5v-26C44 1.6 42.4 0 40.5 0h-37C1.6 0 0 1.6 0 3.5L24 33z" fill="#d9d9d9"/><path d="M4.7 33h35.8c1.9 0 3.5-1.6 3.5-3.5V4L4.7 33z" fill="#eee"/><path class="st0" d="M23.7 33h16.8c1.9 0 3.5-1.6 3.5-3.5V4L16.8 24.1l6.9 8.9z"/><path d="M40.5 2h-37C1.6 2 0 1.6 0 3.5v26C0 31.4 1.6 33 3.5 33H5V4.5h34V33h1.5c1.9 0 3.5-1.6 3.5-3.5v-26C44 1.6 42.4 2 40.5 2z" fill="#ca3737"/><path d="M40.5 0h-37C1.6 0 0 1.5 0 3.5c0 1.2 1.5 2.3 1.5 2.3L22 20.3 42.5 5.8S44 4.7 44 3.5c0-2-1.6-3.5-3.5-3.5z" fill="#f5f5f5"/><path d="M41.2.1L22 13.5 2.8.1C1.2.4 0 1.8 0 3.5c0 1.2 1.5 2.3 1.5 2.3L22 20.3 42.5 5.8S44 4.7 44 3.5C44 1.8 42.8.4 41.2.1z" fill="#e84f4b"/></g></svg>