<svg version="1.1" id="Capa_1" xmlns="http://www.w3.org/2000/svg" x="0" y="0" width="43" height="39" viewBox="0 0 502.7 453.6" xml:space="preserve" fill="#2d93f9"><path class="st0" d="M251.4 0C112.4 0 0 82.5 0 184.1 0 246.7 42.8 301.8 108 335L45.6 453.6 181 360.1c22.5 4.8 45.9 8.2 70.4 8.2 138.9 0 251.3-82.5 251.3-184.2C502.7 82.5 390.2 0 251.4 0zm127.7 193.5h-33.5c-2.3 12.2-7 23.5-13.7 33.3l23.6 23.7-24.1 24.2-23.7-23.7c-9.8 6.7-21.1 11.4-33.2 13.7v33.5h-34.1v-33.5c-12.1-2.4-23.4-7.1-33.3-13.7l-23.7 23.7-24.1-24.2 23.6-23.7c-6.7-9.8-11.3-21.1-13.7-33.3h-33.5v-34h33.5c2.3-12.2 7-23.4 13.7-33.2l-23.6-23.7 24.1-24.1 23.7 23.7c9.8-6.7 21.1-11.4 33.3-13.8V54.9h34.1v33.4c12.1 2.4 23.4 7.1 33.2 13.8l23.6-23.7 24.1 24.1-23.6 23.7c6.7 9.8 11.3 21.1 13.7 33.2H379v34.1z"/><circle class="st0" cx="257.4" cy="176.5" r="37.2"/></svg>