<svg height="512pt" viewBox="-6 0 512 512" width="512pt" xmlns="http://www.w3.org/2000/svg" fill="#21428e"><path d="M484.02 0H15C6.715 0 0 6.715 0 15v229.73c0 80.864 43.934 155.454 114.656 194.66l127.578 70.727a15 15 0 0 0 7.274 1.883 15 15 0 0 0 7.273-1.883l127.578-70.726c70.723-39.207 114.657-113.797 114.657-194.66V15c.004-8.285-6.715-15-14.996-15zm-78.516 273.434a15.002 15.002 0 0 1-11.582-5.465l-49.918-60.606v51.07c0 8.286-6.715 15-15 15-8.281 0-15-6.714-15-15V165.56c0-6.332 3.976-11.98 9.937-14.122a15.007 15.007 0 0 1 16.645 4.586l49.918 60.606v-51.07c0-8.286 6.715-15 15-15 8.281 0 15 6.714 15 15v92.875c0 6.332-3.977 11.98-9.938 14.12a15 15 0 0 1-5.062.88zm-140.965-46.438h-38.277v31.438c0 8.285-6.715 15-15 15s-15-6.715-15-15v-92.875c0-8.286 6.715-15 15-15h53.277c21.074 0 38.219 17.144 38.219 38.218 0 21.075-17.145 38.22-38.219 38.22zm-132.773-7.953l24.379-59.195c3.152-7.66 11.917-11.317 19.582-8.16 7.66 3.156 11.312 11.921 8.156 19.582l-38.246 92.875a15.003 15.003 0 0 1-27.742 0L79.648 171.27c-3.156-7.66.497-16.426 8.157-19.582 7.66-3.153 16.425.5 19.582 8.16zm0 0"/><path d="M264.54 180.559h-38.278v16.437h38.277c4.531 0 8.219-3.687 8.219-8.219s-3.688-8.218-8.219-8.218zm0 0"/></svg>