<svg xmlns="http://www.w3.org/2000/svg" width="43" height="43" viewBox="0 0 512.01 512.01" fill="#2d93f9"><path d="M364.876 147.135c-11.027-11.027-25.502-16.532-39.977-16.532s-28.959 5.514-39.986 16.532c-22.046 22.046-22.046 57.918 0 79.963s57.918 22.046 79.964 0c22.044-22.045 22.044-57.917-.001-79.963zm-56.962 56.953c9.363 9.363 24.589 9.371 33.952 0 3.329-3.337 8.74-3.337 12.068 0a8.525 8.525 0 0 1 0 12.068c-8.006 8.006-18.521 12.009-29.044 12.009s-21.039-4.003-29.044-12.009c-16.011-16.011-16.011-42.068 0-58.08 16.011-16.011 42.077-16.011 58.089 0a8.525 8.525 0 0 1 0 12.068c-3.329 3.337-8.74 3.337-12.068 0-9.363-9.363-24.589-9.354-33.952 0-9.356 9.364-9.356 24.582-.001 33.944zM511.702 8.101A8.546 8.546 0 0 0 503.901.3c-1.477-.12-78.726-5.488-169.546 34.66L477.05 177.656c40.148-90.82 34.78-168.078 34.652-169.555z"/><path d="M469.343 194.094L317.925 42.676c-56.808 28.191-117.287 74.971-167.036 151.904l-67.008-4.464c-3.721-.367-7.161 1.937-8.518 5.403L23.599 327.81a8.526 8.526 0 0 0 2.782 9.901 8.521 8.521 0 0 0 5.164 1.741 8.489 8.489 0 0 0 5.121-1.707l42.965-32.219 22.481 4.498 33.909 33.909-9.32 16.745c-11.292-5.556-24.35-6.99-37.127-3.755-17.095 4.336-31.076 16.003-38.347 32.006L.768 499.942a8.537 8.537 0 1 0 11.309 11.301l111.013-50.467c15.994-7.272 27.662-21.243 31.997-38.339 3.346-13.178 1.707-26.672-4.31-38.211l15.918-9.627 35.3 35.3 4.498 22.489-32.219 42.956a8.54 8.54 0 0 0 6.828 13.664 8.436 8.436 0 0 0 3.107-.589L316.5 436.656a8.532 8.532 0 0 0 5.403-8.518l-4.464-67.016c76.925-49.75 123.713-110.22 151.904-167.028zM138.547 418.229c-3.055 12.043-11.266 21.883-22.515 27.004l-90.299 41.044 41.044-90.299c5.121-11.249 14.962-19.46 27.004-22.515a38.63 38.63 0 0 1 9.491-1.195 36.2 36.2 0 0 1 15.149 3.294c-1.929 3.465-3.858 6.939-5.787 10.404-2.629 4.72-5.386 10.515-.12 14.799 4.711 3.824 9.704.743 14.083-1.733 3.269-1.852 6.538-3.696 9.807-5.548 3.509 7.53 4.303 16.227 2.143 24.745zm-4.114-196.414c-1.084 1.929-2.185 3.815-3.252 5.778-2.936 5.411-5.778 10.942-8.569 16.524-.93 1.852-1.895 3.619-2.808 5.505a606.726 606.726 0 0 0-10.353 22.43c-.947 2.168-1.844 4.455-2.774 6.657-1.92 4.541-3.866 9.047-5.693 13.673l-21.747-4.344a8.526 8.526 0 0 0-6.794 1.545L50.432 306.09l38.561-98.527 51.525 3.44c-2.09 3.532-4.07 7.202-6.085 10.812zm6.495 148.414l12.29-22.088c.384-.444.879-.768 1.169-1.289l40.669-73.827h43.938v37.869l-98.066 59.335zm64.994 91.349l16.507-22.011a8.558 8.558 0 0 0 1.545-6.794l-4.344-21.721c4.703-1.861 9.286-3.841 13.903-5.795 2.117-.896 4.31-1.758 6.393-2.663a590.966 590.966 0 0 0 22.515-10.387c1.784-.871 3.474-1.792 5.232-2.671 5.676-2.842 11.292-5.727 16.78-8.706 1.92-1.05 3.764-2.125 5.659-3.184 3.644-2.048 7.349-4.045 10.908-6.145l3.431 51.525-98.529 38.552zM324.89 260.692c-18.845 0-37.699-7.169-52.054-21.525-28.703-28.703-28.703-75.397 0-104.1s75.406-28.703 104.1 0c28.703 28.703 28.703 75.397 0 104.1-14.348 14.355-33.201 21.525-52.046 21.525z"/></svg>