<svg xmlns="http://www.w3.org/2000/svg" width="50" height="50" viewBox="0 0 512 512" fill="#2d93f9"><path d="M247.471 178.97c-18.492-.469-36.062-2.33-52.267-5.052-11.759 22.852-18.458 47.787-19.686 73.557h71.953V178.97zm68.471-64.282c-8.073-3.43-16.367-6.042-24.9-8.03-1.988-.461-3.959-1.041-5.965-1.425-.171-.034-.35-.043-.521-.077a265.024 265.024 0 0 1 9.796 9.31c12.365 12.373 22.912 25.975 31.582 40.474 13.636-2.731 26.086-5.939 36.873-9.19a154.095 154.095 0 0 0-46.865-31.062zm59.623 44.919c-11.682 3.772-25.557 7.629-41.182 10.965 11.605 24.013 18.227 50.057 19.388 76.894h55.347c-1.724-31.308-12.817-62.173-33.553-87.859zm-128.094-49.134c-5.675 4.531-11.443 9.771-17.749 16.068-9.737 9.737-18.133 20.361-25.378 31.565 13.568 2.039 28.032 3.43 43.128 3.823l-.001-51.456zm78.455 246.579c-8.661 14.498-19.217 28.092-31.582 40.457a279.303 279.303 0 0 1-9.779 9.31c.179-.034.358-.043.529-.077 1.775-.324 3.507-.845 5.257-1.237 3.021-.691 6.042-1.323 9.02-2.202 11.895-3.482 23.339-8.465 34.031-14.737a153.177 153.177 0 0 0 15.437-10.351 149.285 149.285 0 0 0 7.347-5.973c.879-.76 5.922-6.212 6.613-6.007a401.735 401.735 0 0 0-36.873-9.183zm-98.995-251.81c-2.005.384-3.968.964-5.965 1.425-18.236 4.25-35.567 11.75-51.081 22.272a154.609 154.609 0 0 0-20.693 16.811 406.064 406.064 0 0 0 36.873 9.19c8.678-14.498 19.226-28.1 31.59-40.465a265.024 265.024 0 0 1 9.796-9.31c-.17.034-.349.042-.52.077zm-9.276 292.292c-12.365-12.373-22.921-25.975-31.582-40.465-13.636 2.731-26.078 5.939-36.872 9.19 18.074 17.493 40.465 30.473 64.674 37.333 2.577.734 5.171 1.323 7.782 1.92 1.749.401 3.482.913 5.239 1.254.179.034.367.043.546.077a273.125 273.125 0 0 1-9.787-9.309zm64.632-270.993c-6.298-6.298-12.083-11.546-17.749-16.068v51.456a353.506 353.506 0 0 0 43.127-3.823c-7.245-11.205-15.642-21.82-25.378-31.565zm-145.843 33.066c-20.745 25.685-31.829 56.55-33.562 87.859h55.347c1.169-26.837 7.791-52.881 19.388-76.894-15.616-3.336-29.5-7.193-41.173-10.965zm21.794 104.926h-55.347c1.724 31.309 12.809 62.174 33.562 87.859 11.674-3.772 25.557-7.629 41.173-10.965-11.606-24.013-18.228-50.056-19.388-76.894zm17.28 0c1.229 25.771 7.919 50.705 19.686 73.557 16.205-2.722 33.775-4.591 52.267-5.06v-68.497h-71.953zm141.286-90.624c-16.213 2.722-33.775 4.591-52.267 5.052v68.506h71.962c-1.237-25.762-7.927-50.705-19.695-73.558zm36.975 90.624c-1.161 26.837-7.791 52.89-19.388 76.894 15.625 3.336 29.508 7.194 41.182 10.965 20.727-25.685 31.821-56.55 33.553-87.859h-55.347zm-89.241 0v68.497a372.374 372.374 0 0 1 52.275 5.06c11.759-22.852 18.458-47.787 19.686-73.557h-71.961zm-60.195 89.361c7.245 11.204 15.642 21.82 25.378 31.565 6.298 6.298 12.075 11.546 17.749 16.068v-51.456a354.066 354.066 0 0 0-43.127 3.823zm60.195-3.823v51.482c5.649-4.523 11.426-9.771 17.749-16.094 9.737-9.737 18.133-20.361 25.378-31.565-13.568-2.039-28.032-3.43-43.127-3.823z"/><path d="M256.004 0c-141.158 0-256 114.842-256 256 0 67.234 25.694 130.253 72.388 178.278-2.577 5.487-4.122 11.537-4.122 17.988 0 23.526 19.14 42.667 42.667 42.667 23.526 0 42.667-19.14 42.667-42.667 0-23.526-19.14-42.667-42.667-42.667-10.837 0-20.634 4.19-28.169 10.871C40.367 375.893 17.071 317.85 17.071 256c0-128.887 102.588-234.274 230.4-238.78v42.513a8.536 8.536 0 0 0 8.533 8.533 8.536 8.536 0 0 0 8.533-8.533v-51.2c.001-4.71-3.822-8.533-8.533-8.533zm183.612 77.722c2.569-5.487 4.113-11.537 4.113-17.988 0-23.526-19.14-42.667-42.667-42.667s-42.667 19.14-42.667 42.667 19.14 42.667 42.667 42.667c10.846 0 20.634-4.19 28.177-10.871 42.402 44.578 65.69 102.622 65.69 164.471 0 128.888-102.579 234.274-230.4 238.78v-42.513a8.536 8.536 0 0 0-8.533-8.533 8.536 8.536 0 0 0-8.533 8.533v51.2a8.536 8.536 0 0 0 8.533 8.533c141.158 0 256-114.842 256-256 .008-67.235-25.686-130.254-72.38-178.279z"/></svg>