<svg data-name="Слой 1" xmlns="http://www.w3.org/2000/svg" viewBox="0 0 101.773 21.472"><path d="M11.219 21.472a11.019 11.019 0 0 1-1.8-.2 1.02 1.02 0 1 1 .4-2 8.617 8.617 0 0 0 6.4-1.4 8.429 8.429 0 0 0 3.5-5.5 1.02 1.02 0 1 1 2 .4 10.382 10.382 0 0 1-4.3 6.8 10.78 10.78 0 0 1-6.2 1.9z" fill="#2591f5"/><path d="M1.019 9.772h-.2a.919.919 0 0 1-.8-1.1 10.382 10.382 0 0 1 4.3-6.8 10.49 10.49 0 0 1 7.9-1.7 1.037 1.037 0 0 1 .8 1.2.968.968 0 0 1-1.2.8 7.827 7.827 0 0 0-6.3 1.3 8.567 8.567 0 0 0-3.6 5.5.876.876 0 0 1-.9.8zm20.4 0h-15.1a.945.945 0 0 1-1-1 .945.945 0 0 1 1-1h15.1a.945.945 0 0 1 1 1 1.002 1.002 0 0 1-1 1z" fill="#89c24c"/><path d="M16.119 13.572h-15.1a1 1 0 0 1 0-2h15.1a.945.945 0 0 1 1 1 1.002 1.002 0 0 1-1 1z" fill="#2591f5"/><circle cx="17.919" cy="2.972" r="1.1" fill="#89c24c"/><circle cx="4.519" cy="18.572" r="1.1" fill="#2591f5"/><path d="M33.74 7.109a1.786 1.786 0 0 1 .202-.25 1.919 1.919 0 0 1 .486-.364 3.674 3.674 0 0 1 .819-.318 4.677 4.677 0 0 1 1.222-.137 4.035 4.035 0 0 1 1.165.137 2.313 2.313 0 0 1 .682.318.928.928 0 0 1 .322.364q.074.182.106.25l2.98 11.12h-4.457L35.76 10.45a1.7 1.7 0 0 1-.04-.181c-.02-.092-.06-.137-.12-.137s-.12.045-.177.137q-.085.136-.118.181l-4.813 7.777h-4.457zm17.876 11.119l1.555-6.254a1.26 1.26 0 0 0 .03-.25c.002-.075-.043-.113-.134-.113a.332.332 0 0 0-.229.113c-.077.077-.162.16-.257.25l-5.41 5.344a5.667 5.667 0 0 1-.643.558 2.378 2.378 0 0 1-.58.318 2.545 2.545 0 0 1-.585.136 5.818 5.818 0 0 1-.667.035 6.246 6.246 0 0 1-.795-.057 1.693 1.693 0 0 1-.767-.296 1.433 1.433 0 0 1-.503-.682 2.286 2.286 0 0 1 .002-1.24l2.108-9.913h4.456l-1.557 6.252a.722.722 0 0 0-.019.25c.01.062.06.092.152.092a.382.382 0 0 0 .265-.125c.086-.084.159-.156.216-.217l5.532-5.479.353-.33a1.76 1.76 0 0 1 .45-.295 3.049 3.049 0 0 1 .613-.205 3.953 3.953 0 0 1 .869-.08 2.667 2.667 0 0 1 1.414.296 1.5 1.5 0 0 1 .756 1.478q-.043.41-.091.636l-2.078 9.778zm14.234 0l.975-4.593h-3.957l-.976 4.593h-4.456l2.562-12.051h4.456l-.899 4.229h3.957l.899-4.23h4.457l-2.562 12.052zm15.257 0l1.556-6.254a1.344 1.344 0 0 0 .03-.25c0-.075-.044-.113-.135-.113a.328.328 0 0 0-.227.113c-.079.077-.163.16-.26.25l-5.41 5.344a5.753 5.753 0 0 1-.64.558 2.39 2.39 0 0 1-.581.318 2.555 2.555 0 0 1-.586.136 5.798 5.798 0 0 1-.667.035 6.238 6.238 0 0 1-.794-.057 1.693 1.693 0 0 1-.767-.296 1.434 1.434 0 0 1-.504-.682 2.292 2.292 0 0 1 .003-1.24l2.107-9.913h4.456l-1.557 6.252a.724.724 0 0 0-.02.25c.012.062.061.092.153.092a.382.382 0 0 0 .265-.125c.086-.084.16-.156.217-.217l5.53-5.479.355-.33a1.72 1.72 0 0 1 .45-.295 3.06 3.06 0 0 1 .611-.205 3.968 3.968 0 0 1 .87-.08 2.673 2.673 0 0 1 1.415.296 1.499 1.499 0 0 1 .754 1.478 6.198 6.198 0 0 1-.09.636l-2.078 9.778zm9.466-4.115a.45.45 0 0 0 .167-.251c.016-.075-.013-.116-.087-.125a2.073 2.073 0 0 0-.18-.01h-.295a1.833 1.833 0 0 1-.867-.206 1.761 1.761 0 0 1-.673-.681 2.705 2.705 0 0 1-.35-1.513 10.12 10.12 0 0 1 .197-1.512 8.21 8.21 0 0 1 .487-1.49 3.484 3.484 0 0 1 1.156-1.42 3.757 3.757 0 0 1 1.011-.535 3.256 3.256 0 0 1 1.075-.193h7.618a2.432 2.432 0 0 1 .956.159 1.882 1.882 0 0 1 .57.363 1.432 1.432 0 0 1 .415.99 5.163 5.163 0 0 1-.114 1.125l-2.001 9.414H95.2l1.696-7.981c.03-.136.053-.284.072-.444a.476.476 0 0 0-.12-.397.578.578 0 0 0-.333-.148 2.95 2.95 0 0 0-.447-.034h-2.001a2.968 2.968 0 0 0-.38.022.88.88 0 0 0-.391.182.92.92 0 0 0-.314.353 2.003 2.003 0 0 0-.108.352 2.709 2.709 0 0 0-.05.34.389.389 0 0 0 .113.32.487.487 0 0 0 .328.17c.12.008.233.012.338.012h1.092a1.338 1.338 0 0 1 .987.329.946.946 0 0 1 .202.92 3.027 3.027 0 0 1-.403.99 6.13 6.13 0 0 1-.593.807l-3.667 4.207h-4.775z" fill="#2591f5"/></svg>