<svg xmlns="http://www.w3.org/2000/svg" viewBox="0 0 512 512" fill="#2d93f9"><path d="M497 241h-16.76C472.797 128.908 383.092 39.203 271 31.76V15c0-8.291-6.709-15-15-15s-15 6.709-15 15v16.76C128.908 39.203 39.203 128.908 31.76 241H15c-8.291 0-15 6.709-15 15s6.709 15 15 15h16.76C39.203 383.092 128.908 472.797 241 480.24V497c0 8.291 6.709 15 15 15s15-6.709 15-15v-16.76c112.092-7.443 201.797-97.148 209.24-209.24H497c8.291 0 15-6.709 15-15s-6.709-15-15-15zm-61 29.9h14.24c-7.328 95.548-83.692 172.012-179.24 179.34V436c0-8.291-6.709-15-15-15s-15 6.709-15 15v14.24C145.452 442.912 69.088 366.548 61.76 271H76c8.291 0 15-6.709 15-15s-6.709-15-15-15H61.76C69.088 145.452 145.452 69.088 241 61.76V76c0 8.291 6.709 15 15 15s15-6.709 15-15V61.76c95.548 7.328 171.912 83.692 179.24 179.24H436c-8.291 0-15 6.709-15 15s6.709 14.9 15 14.9z"/><path d="M305.76 327.456C294.555 310.888 275.951 301 256 301c-25.21 0-47.9 15.923-56.455 39.624-4.349 12.039-4.536 24.556-1.232 36.976 17.55 8.348 36.958 13.4 57.687 13.4 20.552 0 39.818-4.948 57.255-13.163 4.717-17.737 2.424-35.711-7.495-50.381zM256 211c-16.538 0-30 13.462-30 30s13.462 30 30 30 30-13.462 30-30-13.462-30-30-30z"/><path d="M256 121c-74.559 0-135 60.441-135 135 0 39.999 17.732 75.551 45.37 100.27.465-8.692 1.891-17.353 4.948-25.827 7.575-20.986 22.645-37.733 41.413-48.078C202.423 271.588 196 257.06 196 241c0-33.091 26.909-60 60-60s60 26.909 60 60c0 16.024-6.401 30.518-16.666 41.288 12.316 6.784 23.137 16.335 31.271 28.365 9.346 13.815 14.079 29.522 14.888 45.731C373.208 331.661 391 296.063 391 256c0-74.559-60.441-135-135-135z"/></svg>