<svg xmlns="http://www.w3.org/2000/svg" viewBox="0 0 465.2 461.8" fill="#2d93f9"><path d="M279.6 422c-3.8 1-7.7 1.8-11.6 2.5-10.1 1.9-16.9 11.6-15 21.8.9 5 3.8 9.2 7.6 11.9 4 2.8 9 4.1 14.2 3.1 4.6-.9 9.3-1.9 13.9-3 10-2.5 16.1-12.6 13.6-22.7-2.5-10-12.7-16.1-22.7-13.6zm138.3-250.6c1.3 3.9 3.8 7.2 7 9.4 4.7 3.3 10.8 4.4 16.7 2.5 9.8-3.3 15.1-13.8 11.9-23.6-1.5-4.5-3.1-8.9-4.9-13.3-3.8-9.6-14.7-14.3-24.3-10.4-9.6 3.8-14.3 14.7-10.4 24.3 1.4 3.5 2.7 7.3 4 11.1zm-77.5 223.9c-3.3 2.2-6.7 4.3-10.1 6.3-8.9 5.2-12 16.6-6.9 25.5 1.4 2.4 3.3 4.4 5.4 5.9 5.8 4.1 13.6 4.7 20.1.9 4.1-2.4 8.1-4.9 12.1-7.5 8.6-5.7 11-17.3 5.3-25.9-5.7-8.5-17.3-10.9-25.9-5.2zM465 223.6c-.4-10.3-9.1-18.4-19.4-18-10.3.4-18.4 9.1-17.9 19.4.2 3.9.2 7.9.1 11.9-.1 6.5 3 12.2 7.9 15.7 2.9 2.1 6.5 3.3 10.3 3.4 10.3.2 18.9-8 19.1-18.3.1-4.6.1-9.4-.1-14.1zm-50.2 122.5c-8.3-6.2-20-4.5-26.2 3.7-2.4 3.2-4.9 6.3-7.4 9.3-6.7 7.9-5.7 19.7 2.1 26.4.4.4.9.7 1.4 1.1 7.8 5.5 18.7 4.2 25-3.2 3.1-3.6 6-7.3 8.9-11.1 6.2-8.3 4.5-20-3.8-26.2zm27.5-67.6c-9.9-3.1-20.4 2.4-23.4 12.3-1.2 3.8-2.5 7.5-3.9 11.3-3.1 8.2-.1 17.1 6.7 21.9 1.3.9 2.6 1.6 4.1 2.2 9.6 3.7 20.5-1.2 24.1-10.8 1.7-4.4 3.2-8.9 4.6-13.4 3.2-9.9-2.3-20.4-12.2-23.5zM198 424.7c-16.7-3-32.8-8.1-48-15.2-.2-.1-.3-.2-.5-.3-3.6-1.7-7.2-3.5-10.6-5.4h-.1c-6.4-3.5-12.6-7.4-18.6-11.6-88-62-109.1-184-47.1-271.9 13.5-19.1 29.8-35.1 48-47.7.2-.2.4-.3.7-.5C185.9 28 272.9 25 340.9 70.3l-14.6 21.1c-4.1 5.9-1.6 10.2 5.5 9.5l63.5-5.7c7.1-.6 11.4-6.8 9.5-13.7l-17-61.4c-1.9-6.9-6.8-7.7-10.9-1.8l-14.6 21.2C312.2 6 252.3-6.8 192.9 3.5c-6 1-11.9 2.3-17.7 3.8h-.1c-.2.1-.5.1-.7.2-51.2 13.2-96 43.1-127.9 85.7-.3.3-.5.6-.8 1-1.1 1.4-2.1 2.9-3.1 4.4-1.7 2.4-3.3 4.9-4.9 7.3-.2.3-.4.6-.5.9-26.3 40.8-39 88-36.9 136v.5c.2 4.7.6 9.4 1.1 14.1 0 .3.1.6.1.9.5 4.7 1.2 9.4 2 14.1 8.3 48.1 31.1 91.5 65.1 125.2l.2.2s.1 0 .1.1c9.1 9 19.1 17.4 29.8 24.9 28 19.7 59.2 32.8 92.7 38.8 10.2 1.8 19.9-4.9 21.7-15.1 1.8-10.2-4.9-20-15.1-21.8z"/><path d="M221.1 81.5c-8.4 0-15.1 6.8-15.1 15.1v150.7l137.9 71.3c2.2 1.1 4.6 1.7 6.9 1.7 5.5 0 10.8-3 13.5-8.2 3.8-7.4.9-16.5-6.5-20.4L236.2 229V96.6c0-8.3-6.7-15.1-15.1-15.1z"/></svg>