<svg version="1.1" id="Capa_1" xmlns="http://www.w3.org/2000/svg" x="0" y="0" width="24" height="18" viewBox="0 0 20.8 15.6" xml:space="preserve"><style>.st0{fill:#212121}</style><circle class="st0" cx="10.4" cy="13.2" r="2.4"/><path class="st0" d="M16.2 7.4l-.1-.1-.1-.2-.1-.1C12.8 4.2 8 4.4 5 7.4l-.3.3-.5.5c-.6.6-.6 1.6 0 2.2.6.6 1.6.6 2.2 0l.8-.8c1.9-1.9 5-1.9 6.9 0l.6.6c.6.6 1.5.6 2.1 0 .3-.3.4-.7.4-1.1 0-.4-.2-.8-.4-1.1l-.6-.6z"/><path class="st0" d="M20.4 4.4l-.5-.5-.4-.4-.2-.2c-5.2-4.5-13-4.4-17.9.4 0 0-.1 0-.1.1l-.9.8c-.5.5-.5 1.4 0 2 .5.5 1.4.5 2 0l.9-.9c4-3.9 10.4-3.9 14.4-.1l.7.7c.5.5 1.4.5 2 0 .5-.5.5-1.4 0-1.9z"/></svg>