<svg xmlns="http://www.w3.org/2000/svg" viewBox="0 0 512 512" fill="#2d93f9"><path d="M90 287c-24.814 0-45 20.186-45 45s20.186 45 45 45 45-20.186 45-45-20.186-45-45-45zm30 90H60c-33.091 0-60 26.909-60 60v60c0 8.291 6.709 15 15 15h150c8.291 0 15-6.709 15-15v-60c0-33.091-26.909-60-60-60zm302-90c-24.814 0-45 20.186-45 45s20.186 45 45 45 45-20.186 45-45-20.186-45-45-45zm30 90h-60c-33.091 0-60 26.909-60 60v60c0 8.291 6.709 15 15 15h150c8.291 0 15-6.709 15-15v-60c0-33.091-26.909-60-60-60zM256 0H136C94.579 0 61 33.579 61 75v90c0 36.226 25.811 66.519 60 73.491v46.507c0 13.363 16.157 20.056 25.607 10.606L202.211 240H256c41.421 0 75-33.579 75-75V75c0-41.421-33.579-75-75-75zm-4.395 85.605l-60 60c-5.857 5.857-15.354 5.857-21.211 0l-30-30c-5.859-5.859-5.859-15.352 0-21.211 5.859-5.859 15.352-5.859 21.211 0L181 113.789l49.395-49.395c5.859-5.859 15.352-5.859 21.211 0s5.859 15.352-.001 21.211z"/><path d="M376 30h-25.532C357.023 43.693 361 58.835 361 75v90c0 34.354-16.824 64.631-42.411 83.8l46.804 46.804c9.45 9.45 25.607 2.757 25.607-10.606v-46.507c34.189-6.973 60-37.266 60-73.491v-60c0-41.421-33.579-75-75-75z"/></svg>