<svg xmlns="http://www.w3.org/2000/svg" viewBox="0 0 529.1 621.2" fill="#21428e"><path d="M451.4 228.2h-31.7c0-108.4-69.6-196.5-155.1-196.5s-155.1 88.2-155.1 196.5H77.7C77.7 102.4 161.5 0 264.5 0s186.9 102.4 186.9 228.2zm40.2 17H37.4C16.9 245.2 0 262.1 0 282.6v301.1c0 20.6 16.9 37.4 37.4 37.4h454.2c20.6 0 37.4-16.9 37.4-37.4V282.6c.1-20.5-16.8-37.4-37.4-37.4zM116 460.4c-15 0-27.2-12.2-27.2-27.2S101 406 116 406s27.2 12.2 27.2 27.2c-.1 15-12.2 27.2-27.2 27.2zm99 0c-15 0-27.2-12.2-27.2-27.2S200 406 215 406s27.2 12.2 27.2 27.2-12.2 27.2-27.2 27.2zm99.1 0c-15 0-27.2-12.2-27.2-27.2s12.2-27.2 27.2-27.2 27.2 12.2 27.2 27.2c-.1 15-12.2 27.2-27.2 27.2zm99 0c-15 0-27.2-12.2-27.2-27.2s12.2-27.2 27.2-27.2 27.2 12.2 27.2 27.2-12.2 27.2-27.2 27.2z"/></svg>