<svg xmlns="http://www.w3.org/2000/svg" viewBox="0 0 581.8 545" fill="#21428e"><g fill="#832C44"><path d="M581.8 59.8V21.2c0-11.7-9.6-21.2-21.2-21.2H21.2C9.6 0 0 9.6 0 21.2v38.5h581.8zM0 98.5v26.9c0 18.1 14.8 32.8 32.8 32.8H549c18.1 0 32.8-14.8 32.8-32.8V98.5H0zm294.9 149.6c-58.1 0-105.4 47.3-105.4 105.4s47.3 105.4 105.4 105.4 105.4-47.3 105.4-105.4S353 248.1 294.9 248.1zm0 173.5c-37.8 0-68.5-30.7-68.5-68.5s30.7-68.5 68.5-68.5 68.5 30.7 68.5 68.5-30.7 68.5-68.5 68.5z"/><path d="M294.9 319.3c-18.6 0-33.8 15.2-33.8 33.8 0 18.6 15.2 33.8 33.8 33.8 18.6 0 33.8-15.2 33.8-33.8 0-18.6-15.1-33.8-33.8-33.8z"/><path d="M65.3 192.3v123.1C65.3 441.7 168.6 545 294.9 545s229.6-103.3 229.6-229.6V192.3H65.3zm229.6 304.1c-78.8 0-142.8-64.1-142.8-142.8 0-78.8 64.1-142.8 142.8-142.8s142.8 64.1 142.8 142.8c0 78.7-64 142.8-142.8 142.8z"/></g><g><path d="M581.8 59.8V21.2c0-11.7-9.6-21.2-21.2-21.2H21.2C9.6 0 0 9.6 0 21.2v38.5h581.8zM0 98.5v26.9c0 18.1 14.8 32.8 32.8 32.8H549c18.1 0 32.8-14.8 32.8-32.8V98.5H0zm294.9 149.6c-58.1 0-105.4 47.3-105.4 105.4s47.3 105.4 105.4 105.4 105.4-47.3 105.4-105.4S353 248.1 294.9 248.1zm0 173.5c-37.8 0-68.5-30.7-68.5-68.5s30.7-68.5 68.5-68.5 68.5 30.7 68.5 68.5-30.7 68.5-68.5 68.5z"/><path d="M294.9 319.3c-18.6 0-33.8 15.2-33.8 33.8 0 18.6 15.2 33.8 33.8 33.8 18.6 0 33.8-15.2 33.8-33.8 0-18.6-15.1-33.8-33.8-33.8z"/><path d="M65.3 192.3v123.1C65.3 441.7 168.6 545 294.9 545s229.6-103.3 229.6-229.6V192.3H65.3zm229.6 304.1c-78.8 0-142.8-64.1-142.8-142.8 0-78.8 64.1-142.8 142.8-142.8s142.8 64.1 142.8 142.8c0 78.7-64 142.8-142.8 142.8z"/></g></svg>