<svg height="512pt" viewBox="0 -1 512.001 512" width="512pt" xmlns="http://www.w3.org/2000/svg"><path d="M493.879 298.023c2.64-14.386 4.027-29.109 4.027-43.828 0-32.636-6.386-64.297-19.011-94.105-12.18-28.793-29.606-54.649-51.82-76.848-22.184-22.203-48.06-39.625-76.837-51.805-29.797-12.609-61.46-19-94.093-19-15.383 0-30.79 1.446-45.782 4.325-.031.008-.074.008-.113.015C189.68 5.84 166.547 0 143.129 0c-38.23 0-74.176 14.887-101.207 41.93C14.895 68.96 0 104.906 0 143.137c0 24.332 6.262 48.254 18.008 69.39-2.383 13.696-3.64 27.692-3.64 41.668 0 32.645 6.39 64.301 19.015 94.114 12.16 28.8 29.594 54.64 51.789 76.843 22.215 22.2 48.055 39.649 76.863 51.797 29.8 12.633 61.473 19.028 94.106 19.028 14.207 0 28.445-1.297 42.343-3.762a143.013 143.013 0 0 0 70.414 18.55c38.223 0 74.149-14.859 101.184-41.91C497.122 441.84 512 405.887 512 367.656c0-24.414-6.293-48.414-18.121-69.633zm0 0" fill="#00aff0"/><path d="M257.105 402.262c-85.89 0-124.316-42.227-124.316-73.875 0-16.23 11.984-27.61 28.5-27.61 36.758 0 27.238 52.778 95.816 52.778 35.11 0 54.497-19.063 54.497-38.57 0-11.735-5.79-24.739-28.907-30.438l-76.394-19.07c-61.528-15.43-72.692-48.692-72.692-79.957 0-64.915 61.121-89.29 118.52-89.29 52.875 0 115.203 29.223 115.203 68.168 0 16.688-14.45 26.391-30.96 26.391-31.368 0-25.599-43.418-88.786-43.418-31.356 0-48.723 14.2-48.723 34.516 0 20.281 24.766 26.758 46.266 31.656l56.547 12.55c61.941 13.802 77.644 49.966 77.644 84.028.004 52.75-40.488 92.14-122.215 92.14zm0 0" fill="#fff"/></svg>