<svg xmlns="http://www.w3.org/2000/svg" width="20" height="24" viewBox="0 0 529.082 621.202" fill="#212121"><path d="M451.374 228.233H419.68c0-108.372-69.595-196.538-155.138-196.538s-155.138 88.166-155.138 196.538H77.708C77.708 102.385 161.52 0 264.54 0s186.833 102.385 186.833 228.233zm40.264 16.972H37.445A37.555 37.555 0 0 0 0 282.649v301.108a37.555 37.555 0 0 0 37.445 37.445h454.193a37.555 37.555 0 0 0 37.444-37.445V282.65a37.555 37.555 0 0 0-37.444-37.444zM115.956 460.38a27.178 27.178 0 1 1 27.177-27.178 27.177 27.177 0 0 1-27.177 27.178zm99.057 0a27.178 27.178 0 1 1 27.177-27.178 27.177 27.177 0 0 1-27.177 27.178zm99.057 0a27.178 27.178 0 1 1 27.177-27.178 27.177 27.177 0 0 1-27.177 27.178zm99.057 0a27.178 27.178 0 1 1 27.177-27.178 27.178 27.178 0 0 1-27.178 27.178z"/></svg>