<svg xmlns="http://www.w3.org/2000/svg" viewBox="0 0 512 512" fill="#2d93f9"><path d="M486.4 196.267H384v-85.333a8.533 8.533 0 0 0-8.533-8.533H332.8V59.733a8.533 8.533 0 0 0-8.533-8.533h-59.733V0h-17.067v51.2h-59.733a8.533 8.533 0 0 0-8.533 8.533V102.4h-42.667a8.533 8.533 0 0 0-8.533 8.533v85.333H25.6a8.533 8.533 0 0 0-8.533 8.533v298.667a8.533 8.533 0 0 0 8.533 8.533h460.8a8.533 8.533 0 0 0 8.533-8.533V204.8a8.533 8.533 0 0 0-8.533-8.533zM128 494.933H34.133v-281.6H128v281.6zm68.267-426.666h119.467V102.4H196.267V68.267zM366.933 204.8v290.133H145.067V119.467h221.867V204.8zm110.934 290.133H384v-281.6h93.867v281.6z"/><path d="M452.267 230.4H409.6a8.533 8.533 0 0 0 0 17.066h42.667a8.533 8.533 0 0 0 0-17.066zm0 34.133H409.6a8.533 8.533 0 0 0 0 17.066h42.667a8.533 8.533 0 0 0 0-17.066zm0 34.134H409.6a8.533 8.533 0 0 0 0 17.066h42.667a8.533 8.533 0 0 0 0-17.066zm0 34.133H409.6a8.533 8.533 0 0 0 0 17.066h42.667a8.533 8.533 0 0 0 0-17.066zm0 34.133H409.6a8.534 8.534 0 0 0 0 17.067h42.667a8.535 8.535 0 0 0 0-17.067zm0 34.134H409.6a8.533 8.533 0 0 0 0 17.066h42.667a8.533 8.533 0 0 0 0-17.066zm0 34.133H409.6a8.533 8.533 0 0 0 0 17.066h42.667a8.533 8.533 0 0 0 0-17.066zm0 34.133H409.6a8.533 8.533 0 0 0 0 17.066h42.667a8.533 8.533 0 0 0 0-17.066zm-281.6-332.8a8.533 8.533 0 0 0-8.533 8.533v324.425a8.533 8.533 0 0 0 17.066 0V145.067a8.534 8.534 0 0 0-8.533-8.534zm42.666 0a8.533 8.533 0 0 0-8.533 8.533v324.425a8.533 8.533 0 0 0 17.066 0V145.067a8.533 8.533 0 0 0-8.533-8.534zm42.667 0a8.533 8.533 0 0 0-8.533 8.533v324.425a8.533 8.533 0 0 0 17.066 0V145.067a8.533 8.533 0 0 0-8.533-8.534zm42.667 0a8.533 8.533 0 0 0-8.533 8.533v324.425a8.533 8.533 0 0 0 17.066 0V145.067a8.534 8.534 0 0 0-8.533-8.534zm42.666 0a8.533 8.533 0 0 0-8.533 8.533v324.425a8.533 8.533 0 0 0 17.066 0V145.067a8.533 8.533 0 0 0-8.533-8.534zM102.4 247.467H59.733A8.533 8.533 0 0 0 51.2 256v76.8a8.533 8.533 0 0 0 8.533 8.533H102.4a8.533 8.533 0 0 0 8.533-8.533V256a8.533 8.533 0 0 0-8.533-8.533zm-8.533 76.8h-25.6v-59.733h25.6v59.733zm8.533 51.2H59.733A8.533 8.533 0 0 0 51.2 384v76.8a8.533 8.533 0 0 0 8.533 8.533H102.4a8.533 8.533 0 0 0 8.533-8.533V384a8.533 8.533 0 0 0-8.533-8.533zm-8.533 76.8h-25.6v-59.733h25.6v59.733z"/></svg>