<svg version="1.1" id="Слой_1" xmlns="http://www.w3.org/2000/svg" x="0" y="0" viewBox="0 0 640 640" xml:space="preserve"><style>.st0{fill:#2591f5}</style><path class="st0" d="M202.8 330.7c0 5.9 4.8 10.7 10.7 10.7h85.3c5.9 0 10.7-4.8 10.7-10.7v-85.3c-.1-24.1-16.3-45.1-39.6-51.3 24.6-25.1 24.3-65.4-.6-90.2-24.9-24.8-65.2-24.8-90.2 0s-25.2 65-.6 90.2c-23.3 6.2-39.5 27.2-39.6 51.3V282c0 5.9 4.8 10.7 10.7 10.7s10.7-4.8 10.7-10.7v-36.7c0-17.7 14.3-32 32-32h64c17.7 0 32 14.3 32 32V320h-74.7c-6.1 0-10.8 4.8-10.8 10.7zm21.3-224c23.6 0 42.7 19.1 42.7 42.7s-19.1 42.7-42.7 42.7-42.7-19.1-42.7-42.7 19.1-42.7 42.7-42.7z"/><path class="st0" d="M256.1 266.7c5.9 0 10.7-4.8 10.7-10.7 0-5.9-4.8-10.7-10.7-10.7h-21.3c-5.9 0-10.7 4.8-10.7 10.7 0 5.9 4.8 10.7 10.7 10.7h21.3z"/><path class="st0" d="M630.6 540.1L502.4 411.9c-9.7-9.2-24.1-11.6-36.3-6.1l-56.5-56.5c67.7-100.2 43.6-236.1-54.4-306.9-98-70.8-234.6-51-308.5 44.7-73.9 95.8-58.4 232.9 35 309.7 4.5 3.7 11.3 3.1 15-1.4 3.7-4.5 3.1-11.3-1.4-15C9.4 310.1-4 183.7 65.3 96.9 134.5 10.1 260.7-4.8 348.4 63.3c87.7 68.2 104.2 194.1 37.2 282.6-2.6 3.4-5.2 6.7-7.9 9.9-.2.3-.5.5-.7.8-6.2 7.1-12.9 13.8-20 20-.3.3-.6.6-1 .9-3.2 2.7-6.5 5.3-9.8 7.8-35.1 26.7-77.9 41.2-122 41.2-3.4 0-6.7-.2-10.1-.3-5.9-.3-10.9 4.2-11.3 10.1-.3 5.9 4.2 10.9 10.1 11.3 3.7.2 7.5.4 11.2.4 44.7 0 88.3-13.3 125.2-38.4l62.6 62.6c4.2 4.2 10.9 4.2 15.1 0l45.2-45.2c4.2-4 10.9-4 15.1 0l128.2 128.2c4.2 4.2 4.2 10.9 0 15.1l-45.2 45.3c-4.2 4.2-10.9 4.2-15.1 0l-84-84c-4.2-4.1-11-4-15.1.2-4 4.1-4 10.7 0 14.9l84 84c12.5 12.5 32.8 12.5 45.3 0l45.2-45.2c12.5-12.6 12.5-32.9 0-45.4zm-211.1-90.5l-52.9-52.9c11-9.1 21.1-19.2 30.2-30.2l52.9 52.9-30.2 30.2zm-22.8-83.1z"/><path class="st0" d="M224.1 384c-5.9 0-10.7 4.8-10.7 10.7 0 5.9 4.8 10.7 10.7 10.7 56.1.2 109.2-25.7 143.5-70.1 34.4-44.4 46.1-102.2 31.9-156.5-1.5-5.7-7.3-9.1-13-7.7-5.7 1.5-9.1 7.3-7.7 13 22.4 85.1-28.4 172.3-113.5 194.7-13.4 3.5-27.3 5.3-41.2 5.2zm87.7-318.6c-80.6-44.7-182-21.7-235.5 53.4s-42 178.4 26.6 240c4.3 4 11 3.8 15.1-.5 4-4.3 3.8-11-.5-15.1-.1-.1-.2-.2-.4-.3-60.5-54.3-70.6-145.4-23.4-211.7C141 65 230.3 44.7 301.5 84.1c5.2 2.9 11.6 1 14.5-4.2 2.8-5.1 1-11.6-4.2-14.5zM96.1 565.3c-5.9 0-10.7 4.8-10.7 10.7 0 5.9 4.8 10.7 10.7 10.7h64c5.9 0 10.7-4.8 10.7-10.7 0-5.9-4.8-10.7-10.7-10.7h-64z"/><path class="st0" d="M298.7 469.3H181.4V330.7c0-4.8-3.2-9.1-7.9-10.3-4.7-1.3-9.6.8-12 5l-82.3 144H64.1c-17.7 0-32 14.3-32 32V608c0 17.7 14.3 32 32 32h234.6c17.7 0 32-14.3 32-32v-21.3c0-5.9-4.8-10.7-10.7-10.7s-10.7 4.8-10.7 10.7V608c0 5.9-4.8 10.7-10.7 10.7H64.1c-5.9 0-10.7-4.8-10.7-10.7V501.3c0-5.9 4.8-10.7 10.7-10.7h21.3c3.8 0 7.4-2 9.3-5.3l65.4-114.5V480c0 5.9 4.8 10.7 10.7 10.7h128c5.9 0 10.7 4.8 10.7 10.7v21.3c0 5.9 4.8 10.7 10.7 10.7s10.7-4.8 10.7-10.7v-21.3c-.2-17.7-14.5-32.1-32.2-32.1z"/><path class="st0" d="M245.4 565.3h-42.7c-5.9 0-10.7 4.8-10.7 10.7 0 5.9 4.8 10.7 10.7 10.7h42.7c5.9 0 10.7-4.8 10.7-10.7 0-5.9-4.8-10.7-10.7-10.7zm32-42.6h-42.7c-5.9 0-10.7 4.8-10.7 10.7s4.8 10.7 10.7 10.7h42.7c5.9 0 10.7-4.8 10.7-10.7s-4.8-10.7-10.7-10.7zm-74.6 10.6c0-5.9-4.8-10.7-10.7-10.7h-74.7c-5.9 0-10.7 4.8-10.7 10.7s4.8 10.7 10.7 10.7h74.7c5.9 0 10.7-4.8 10.7-10.7z"/></svg>