<svg version="1.1" id="Слой_1" xmlns="http://www.w3.org/2000/svg" x="0" y="0" viewBox="0 0 352 480" xml:space="preserve"><style>.st0{fill:#2591f5}</style><path class="st0" d="M350.6 207.6c-3.4-9.6-12.5-15.9-22.6-15.9-10.1 0-19.2 6.4-22.5 16H256v-32h32c4.4 0 8-3.6 8-8v-33.5c12.5-4.4 19-18.1 14.6-30.6S292.5 84.6 280 89s-19 18.1-14.6 30.6c2.4 6.8 7.8 12.2 14.6 14.6v25.5h-24v-16c0-4.4-3.6-8-8-8h-16V94.2c12.5-4.4 19-18.1 14.6-30.6S228.5 44.6 216 49s-19 18.1-14.6 30.6c2.4 6.8 7.8 12.2 14.6 14.6v41.5h-32V8c0-1.4-.4-2.7-1-3.8-5 13.8-10.1 27.6-15 41.5v26.4l-6.6.6c-1.1.1-2.1.5-3 1-3.8 11.5-7.5 23.1-10.9 34.8 4.2-1.4 8.4-2.6 12.8-3.4 3.2-.6 5.7-3 6.4-6.2l1.3-6.3v27.5c-9.3 1.1-18.1 3.9-26 8.1-2.1 7.9-4 15.9-5.8 24.1 8.4-8.4 19.4-14.2 31.8-16V247c-17-2.4-31-12.2-39.5-25.7 0 8.4.2 16.8.8 25.1 10.6 9 23.9 15.1 38.7 16.8v27.5l-1.3-6.3c-.7-3.2-3.2-5.7-6.4-6.2-4.7-.9-9.4-2.1-13.9-3.8-.9-.3-1.8-.5-2.7-.5-2.3 0-4.4 1-6 2.7l-4.2 4.7c1.1 6.6 2.3 13.1 3.7 19.6.3-.3.7-.6 1-.9l8-8.9c2 .6 4 1.1 6 1.6l2.4 11.6c.7 3.4 3.5 5.9 6.9 6.3 2.3.3 4.5.5 6.6.6V398c2.4 5.9 4.9 11.9 7.4 17.8H242c4-.4 7.6 2.6 8 6.6v.8c0 4.4-3.6 8-8 8h-59.9c2.4 5.3 4.7 10.7 7.2 16H244c4.5.1 8.1 3.8 8 8.3v.3c0 4.4-3.6 8-8 8h-47.2c1.1 2.3 2.1 4.6 3.2 6.9 1.4 2.9 2.5 6 3.3 9.1H244c13.3-.1 24.1-11 24-24.3v-.3c0-6.5-2.7-12.7-7.4-17.2 3.4-4.4 5.3-9.8 5.3-15.3 0-12.7-10.3-22.9-23-22.9h-59V247.7h16v24c0 4.4 3.6 8 8 8h24v9.5c-12.5 4.4-19 18.1-14.6 30.6s18.1 19 30.6 14.6 19-18.1 14.6-30.6c-2.4-6.8-7.8-12.2-14.6-14.6v-17.5c0-4.4-3.6-8-8-8h-24v-16h32c4.4 0 8-3.6 8-8v-16h49.5c4.4 12.5 18.1 19 30.6 14.5 12.5-4.4 19.1-18.1 14.6-30.6zM288 103.7c4.4 0 8 3.6 8 8s-3.6 8-8 8-8-3.6-8-8 3.6-8 8-8zm-48 200c4.4 0 8 3.6 8 8s-3.6 8-8 8-8-3.6-8-8 3.6-8 8-8zm-16-240c4.4 0 8 3.6 8 8s-3.6 8-8 8-8-3.6-8-8 3.6-8 8-8zm16 168h-56v-80h56v80zm88-8c-4.4 0-8-3.6-8-8s3.6-8 8-8 8 3.6 8 8-3.6 8-8 8z"/><path class="st0" d="M196.8 464H108c-4.5-.1-8.1-3.8-8-8.3v-.3c0-4.4 3.6-8 8-8h81.2c-2.4-5.3-4.8-10.7-7.2-16h-72c-4.5-.1-8.1-3.8-8-8.3v-.3c.2-4 3.5-7.1 7.5-6.9h65.8c-2.5-5.9-5-11.9-7.4-17.8v1.8h-56.7c-3.3-23.6-20-47.6-35-69-6.6-9.5-12.9-18.4-17.5-26.5-26-46-42.8-101.7-42.8-141.8C16 82.9 82.1 19.9 168 16.2v29.5c4.9-13.9 10-27.7 15-41.5-1.4-2.5-4-4.2-7-4.2C77.3 0 0 71.5 0 162.7 0 206 17.2 263.4 44.9 312.4c5 8.8 11.5 18 18.3 27.8 14.5 20.7 30.7 44 32.4 64.2-6.2 4.3-9.7 11.5-9.6 19 0 5.4 1.9 10.6 5.3 14.9-4.7 4.7-7.3 11-7.3 17.7 0 13.2 10.8 24 24 24h95.3c-.8-3.1-1.9-6.2-3.3-9.1-1.1-2.3-2.1-4.6-3.2-6.9z"/><path class="st0" d="M154.5 79l-2.4 11.6c-2 .5-4 1-6 1.6l-8-8.9c-2.3-2.6-5.9-3.4-9.1-2-9 3.9-17.4 8.8-25.2 14.7-2.7 2.1-3.9 5.6-2.8 8.9l3.7 11.2c-1.5 1.4-3 2.9-4.4 4.4l-11.2-3.7c-3.3-1.1-6.8.1-8.9 2.8-5.9 7.8-10.8 16.2-14.7 25.2-1.3 3.2-.5 6.8 2 9.1l8.9 8c-.6 2-1.1 3.9-1.6 5.9l-12.4 2.5c-3.7.7-6.4 4-6.4 7.8v27.3c0 3.8 2.7 7.1 6.4 7.8l12.4 2.5c.5 2 1 4 1.6 5.9l-8.9 8c-2.5 2.3-3.4 5.9-2 9.1 3.9 9 8.8 17.4 14.7 25.2 2.1 2.7 5.6 3.8 8.9 2.8l11.2-3.7c1.4 1.5 2.9 3 4.4 4.4l-3.7 11.2c-1.1 3.3.1 6.8 2.8 8.9 7.8 5.9 16.2 10.8 25.2 14.7 2.7 1.2 5.8.7 8.1-1.1-1.4-6.5-2.6-13.1-3.7-19.6l-3.3 3.7c-4.2-2.1-8.2-4.4-12-7.1l3.5-10.6c1-3.1.1-6.5-2.4-8.6a81.9 81.9 0 0 1-10.2-10.2c-2.1-2.5-5.5-3.4-8.6-2.4l-10.6 3.5c-2.6-3.9-5-7.9-7.1-12l8.4-7.5c2.4-2.2 3.3-5.6 2.2-8.7-1.6-4.5-2.9-9.2-3.8-13.9-.6-3.2-3.1-5.8-6.3-6.4L72 198.8v-14.2l11.2-2.2c3.2-.6 5.7-3.2 6.3-6.4.9-4.7 2.1-9.4 3.8-13.9 1.1-3.1.2-6.5-2.2-8.7l-8.4-7.5c2.1-4.2 4.4-8.2 7.1-12l10.6 3.5c3.1 1 6.5 0 8.6-2.4 3.1-3.7 6.6-7.1 10.2-10.3 2.5-2.1 3.4-5.5 2.4-8.6l-3.5-10.6c3.9-2.6 7.9-5 12-7.1l7.5 8.4c2.2 2.4 5.6 3.3 8.7 2.2.4-.1.8-.3 1.2-.4 3.4-11.8 7.1-23.4 10.9-34.8-2 1-3.4 2.9-3.9 5.2z"/><path class="st0" d="M104 191.7c0 21.8 9.8 41.5 25.3 54.8-.6-8.3-.8-16.7-.8-25.1-6.8-10.8-9.9-24-8-37.6 1.7-12.2 7.4-23.1 15.6-31.4 1.8-8.1 3.8-16.2 5.8-24.1-22.6 12.2-37.9 36.2-37.9 63.4zM234.5 9l-4.8 15.3c4.9 1.6 9.8 3.4 14.6 5.4l6.3-14.7c-5.4-2.3-10.7-4.3-16.1-6zm-35.3 8.5c5.2.7 10.3 1.6 15.3 2.7L218 4.5c-5.5-1.2-11.1-2.2-16.8-2.9l-2 15.9zM328 115.9l15.1-5.4c-1.9-5.4-4.1-10.7-6.7-15.8l-14.4 7c2.3 4.6 4.3 9.3 6 14.2zm-21.2-63c-4-4.1-8.2-7.9-12.6-11.6L284 53.6c4 3.3 7.8 6.8 11.4 10.5l11.4-11.2zm7.7 35.3l13.5-8.5c-3.1-4.8-6.4-9.5-9.9-14l-12.5 10c3.2 4 6.2 8.2 8.9 12.5zm-34-57.1c-4.7-3.2-9.6-6.1-14.6-8.8l-7.6 14.1c4.6 2.5 9 5.1 13.3 8l8.9-13.3zm30.4 237.4l14.7 6.3c2.2-5.1 4.2-10.3 6.2-15.5l-15-5.6c-1.8 4.9-3.8 9.9-5.9 14.8zM336 161.2v1.5c0 4.5-.2 9.2-.6 14.1l15.9 1.3c.4-5.3.7-10.5.7-15.4v-1.6l-16 .1zm-55.5 162.9l13.1 9.1c3.3-4.8 6.4-9.4 9.3-13.9l-13.5-8.5c-2.8 4.4-5.8 8.8-8.9 13.3zm-18.6 27.2l13.4 8.7c2.9-4.5 5.9-8.9 9-13.3l-13.1-9.1c-3.2 4.4-6.3 9-9.3 13.7zm-16.2 30l14.9 5.9c1.9-4.7 4.1-9.3 6.6-13.8l-14-7.7c-2.9 5-5.4 10.2-7.5 15.6zM347.9 127l-15.6 3.6c1.2 5 2.1 10.1 2.7 15.2l15.9-1.9c-.7-5.7-1.7-11.3-3-16.9zm-50.7 170.2l14.1 7.5c2.6-4.9 5.1-9.9 7.5-14.9l-14.4-6.9c-2.3 4.9-4.7 9.6-7.2 14.3z"/></svg>