<svg xmlns="http://www.w3.org/2000/svg" width="512" height="512" viewBox="0 0 60 60" fill="#2591f5"><path d="M5.729 58.407C9.12 60 13.746 59.991 18.641 60H19.7c4.768 0 9.255-.036 12.566-1.593C36.18 56.568 38 52.943 38 47a40.921 40.921 0 0 0-1.1-8.914l5 3.561a1.9 1.9 0 0 0 2.2 0l11.057-7.871A11.5 11.5 0 0 0 60 24.439V7.912a1 1 0 0 0-.6-.918L43.4.082a1 1 0 0 0-.792 0l-10.637 4.6A2.992 2.992 0 0 0 29 2h-2a9 9 0 0 0-8 4.9A9 9 0 0 0 11 2H9a3 3 0 0 0-3 3v2a9.008 9.008 0 0 0 7.463 8.859C5.673 21.106 0 36.362 0 47c0 5.943 1.82 9.568 5.729 11.407zM43 2.089l15 6.48v15.87a9.49 9.49 0 0 1-4 7.708l-11 7.83-11-7.83a9.492 9.492 0 0 1-4-7.708V8.569l15-6.48zM27 4h2a1 1 0 0 1 1 1v.526l-3.4 1.468a1 1 0 0 0-.6.918v5.393a6.9 6.9 0 0 1-3 .7h-1.586l2.293-2.293a1 1 0 0 0-1.414-1.414L20 12.586V11a7.008 7.008 0 0 1 7-7zm-1 12.953a15.262 15.262 0 0 0-1.424-1.109c.484-.087.96-.213 1.424-.379v1.488zM8 7V5a1 1 0 0 1 1-1h2a7.008 7.008 0 0 1 7 7v1.586l-4.293-4.293a1 1 0 0 0-1.414 1.414L16.586 14H15a7.008 7.008 0 0 1-7-7zm11 9c2.34 0 4.693 1.26 7 3.722v4.717a11.5 11.5 0 0 0 4.842 9.337l3.536 2.518A41.4 41.4 0 0 1 36 47c0 5.147-1.413 8.107-4.581 9.6-2.986 1.4-7.19 1.4-12.06 1.4h-.718c-4.836 0-9.074 0-12.06-1.4C3.413 55.107 2 52.147 2 47c0-11.679 7.945-31 17-31z"/><path d="M12 47a1 1 0 0 0 0 2h6v2a1 1 0 0 0 2 0v-2h1.5a5.5 5.5 0 0 0 0-11H20v-7h6a1 1 0 0 0 0-2h-6v-2a1 1 0 0 0-2 0v2h-1.5a5.5 5.5 0 0 0 0 11H18v7h-6zm4.5-9a3.5 3.5 0 0 1 0-7H18v7h-1.5zm3.5 2h1.5a3.5 3.5 0 0 1 0 7H20v-7zm13.161-9.482l9.259 6.59a1 1 0 0 0 1.16 0l9.259-6.59A7.489 7.489 0 0 0 56 24.439v-13.9a1 1 0 0 0-.6-.918l-12-5.184a1 1 0 0 0-.792 0l-12 5.184a1 1 0 0 0-.6.918v13.9a7.493 7.493 0 0 0 3.153 6.079zM32 11.2l11-4.753L54 11.2v13.239a5.484 5.484 0 0 1-2.321 4.45L43 35.066l-8.679-6.177A5.49 5.49 0 0 1 32 24.439V11.2z"/><path d="M40.115 26.942a1 1 0 0 0 1.381-.175l9.143-11.428a1 1 0 0 0-1.563-1.249l-8.537 10.671-3.8-2.847a1 1 0 0 0-1.2 1.6l4.576 3.428z"/></svg>