<svg version="1.1" id="Слой_1" xmlns="http://www.w3.org/2000/svg" x="0" y="0" viewBox="0 0 640 640.1" xml:space="preserve"><style>.st0{fill:#2591f5}</style><path class="st0" d="M320 640h86.6c1.5-7.1 2.8-14.2 3.7-21.3H320c-11.8 0-21.3-9.6-21.3-21.3 0-11.1 8.5-20.3 19.6-21.1 5.7-.6 10-5.5 9.8-11.3-.2-5.7-4.9-10.3-10.7-10.3h-8c-11.8 0-21.3-9.6-21.3-21.3 0-11.8 9.6-21.3 21.3-21.3 5.9 0 10.7-4.8 10.7-10.7 0-5.9-4.8-10.7-10.7-10.7h-10.7c-11.8 0-21.3-9.6-21.3-21.3s9.6-21.3 21.3-21.3c5.9 0 10.7-4.8 10.7-10.7 0-5.9-4.8-10.7-10.7-10.7H288c-11.8 0-21.3-9.6-21.3-21.3S276.2 384 288 384h87.5c-1.5-7.2-3-14.3-4.4-21.3H349c5.9-10.6 11.1-21.5 15.5-32.7-3-15.2-5.8-30.3-8.3-45.5-6.3 27.6-17.1 54-32.1 78.2H288c-23.6 0-42.7 19.1-42.7 42.7 0 10.9 4.2 21.4 11.7 29.3-4 2.9-7.8 5.9-11.9 8.5L224 456.7l-21.1-13.6c-47.3-30.3-83.3-75.4-102.3-128.3L349.8 240c-.8-7.2-1.6-14.4-2.2-21.6l-253.4 76c-1.7-6.3-3.2-12.6-4.4-19.1l173.6-52.1 82.8-24.8c0-.8-.1-1.7-.1-2.5-.3-6.5-.5-13-.8-19.5L86.8 254c-.7-6.7-1.1-13.3-1.3-20l258.9-77.7c-.3-7.3-.6-14.7-.9-22L85.3 211.8v-76.3l139-49.7 118.5 33.9c-.3-7.5-.7-15-1.1-22.5L226.9 64.4c-2.1-.6-4.4-.5-6.5.2L71.1 118c-4.2 1.5-7.1 5.5-7.1 10v90.2L21.3 231V82.6L224 21.8l115 34.5c-.6-7.6-1.3-15.3-2.1-22.9L227 .4c-2-.6-4.1-.6-6.1 0L7.6 64.4C3.1 65.8 0 70 0 74.7v156.2c0 4.9.3 9.8.5 14.8.3 7.2.7 14.4 1.3 21.5.1 1.2.3 2.4.4 3.6 13.1 135.4 95.2 254.5 217 315 3 1.5 6.5 1.5 9.5 0 16-8 31.4-17.1 46.1-27.2 3.3 4.6 7.6 8.5 12.4 11.5-21.5 8.3-21.5 73 32.8 69.9M23.6 270c-.5-5.5-1-11.1-1.4-17l42.2-12.7c.3 6.7.8 13.3 1.6 19.9l-42.1 12.6c-.1-.9-.2-1.8-.3-2.8zm3.5 25.9c-.1-.5-.2-1.1-.3-1.6l42.4-12.7c1.3 6.4 2.8 12.8 4.5 19.1l-43 12.9c-1.3-5.9-2.5-11.8-3.6-17.7zm239.6 237.4c0 1.5.1 3 .3 4.4-13.7 9.7-28.1 18.5-43 26.3-91.9-47.2-160.1-130.4-188.3-229.7L80.1 321c20.5 57.7 59.6 107 111.2 140.1l26.9 17.3c3.5 2.3 8 2.3 11.5 0l26.9-17.3.3-.2c-3.8 17.7 4.2 35.8 19.8 45-6.5 7.7-10 17.4-10 27.4z"/><path class="st0" d="M629.3 384H567l-57.7-19.2-18.6-46.8v-35.3c-.1-24.4-18.5-44.8-42.7-47.5 0-1.5.1-2.9.1-4.4V74.7c0-4.7-3.1-8.9-7.6-10.2L337 33.5c.8 7.6 1.5 15.3 2.1 22.9l87.7 26.3v26.8L384 122.2v-4.9c0-4.8-3.2-8.9-7.7-10.3l-34.5-9.9c.4 7.5.8 15 1.1 22.5l19.8 5.7v3.2l-19.2 5.7c.3 7.3.6 14.7.9 22l18.3-5.5v20.4l-17.5 5.2c.3 6.5.5 13 .8 19.5 0 .8.1 1.7.1 2.5l16.5-5v20.4l-15.1 4.5c.6 7.2 1.4 14.4 2.2 21.6l12.5-3.8c-.5 16.3-2.6 32.4-6.2 48.2 2.5 15.1 5.3 30.3 8.3 45.5 12.6-31.8 19.3-65.7 19.5-100.2l42.7-12.8v13.8c0 2.3-.1 4.6-.1 6.8-19.1 6.8-31.8 24.8-31.9 45v29.1c0 6.8 1.3 13.5 3.8 19.8l12.4 31.1H371c1.5 7.1 2.9 14.2 4.4 21.3h51.2c3.5 0 6.9-1.8 8.8-4.7 2-2.9 2.4-6.7 1.1-9.9l-18.3-45.7c-1.5-3.8-2.3-7.8-2.3-11.9v-29.1c0-14.7 11.9-26.7 26.7-26.7s26.7 11.9 26.7 26.7V320c0 1.4.3 2.7.8 4l21.3 53.3c1.2 2.9 3.6 5.2 6.5 6.2l56.7 18.9V581l-56.5 37.7h-87.8c-.9 7.1-2.2 14.2-3.7 21.3h94.8c2.1 0 4.2-.6 5.9-1.8l61.3-40.9h60.8c5.9 0 10.7-4.8 10.7-10.7v-192c-.1-5.8-4.9-10.6-10.8-10.6zM426.7 194.7L384 207.5v-20.4l42.7-12.8v20.4zm0-42.6L384 164.9v-20.4l42.7-12.8v20.4zm192 423.9H576V405.3h42.7V576z"/></svg>