<?xml version="1.0" standalone="no"?>
<!DOCTYPE svg PUBLIC "-//W3C//DTD SVG 20010904//EN"
 "http://www.w3.org/TR/2001/REC-SVG-20010904/DTD/svg10.dtd">
<svg version="1.0" xmlns="http://www.w3.org/2000/svg"
 width="748.000000pt" height="748.000000pt" viewBox="0 0 748.000000 748.000000"
 preserveAspectRatio="xMidYMid meet">
<metadata>
Created by potrace 1.11, written by Peter Selinger 2001-2013
</metadata>
<g transform="translate(0.000000,748.000000) scale(0.100000,-0.100000)"
fill="#000000" stroke="none">
<path d="M3307 7314 c-1 -1 -49 -4 -107 -8 -58 -3 -127 -9 -155 -12 -70 -7
-265 -38 -315 -50 -14 -3 -36 -8 -49 -10 -82 -16 -254 -64 -376 -106 -377
-129 -741 -329 -1060 -585 -98 -79 -341 -312 -436 -418 -97 -109 -239 -304
-328 -448 -68 -112 -80 -134 -146 -267 -148 -296 -251 -597 -311 -910 -3 -14
-9 -41 -13 -62 -12 -53 -6 -147 13 -192 34 -81 128 -164 208 -182 89 -21 214
-2 283 43 83 54 113 104 130 213 3 19 12 63 20 96 8 34 16 73 19 85 11 51 16
68 54 184 219 665 663 1211 1303 1600 61 37 282 145 369 180 208 84 461 148
670 170 30 3 73 8 95 10 89 10 397 4 485 -9 19 -3 58 -8 85 -11 28 -3 57 -8
65 -10 8 -2 31 -6 50 -9 19 -4 52 -10 73 -15 21 -5 69 -8 107 -6 178 8 298
132 306 318 9 191 -115 334 -311 362 -22 3 -49 8 -61 10 -11 2 -45 7 -75 10
-30 3 -65 7 -79 10 -56 11 -502 28 -513 19z"/>
<path d="M5869 6675 c-99 -36 -175 -99 -217 -180 -168 -320 180 -663 500 -493
264 140 252 523 -20 655 -47 22 -72 27 -142 29 -50 1 -100 -3 -121 -11z"/>
<path d="M2041 4718 c-197 -29 -307 -222 -250 -438 20 -73 64 -134 129 -174
84 -53 -63 -51 2715 -50 l2580 0 57 26 c123 57 198 163 203 290 7 162 -68 281
-207 332 -52 19 -115 19 -2614 20 -1408 1 -2584 -2 -2613 -6z"/>
<path d="M6849 3455 c-69 -15 -95 -26 -146 -63 -69 -51 -121 -143 -137 -247
-3 -16 -7 -39 -10 -50 -2 -11 -11 -49 -20 -85 -112 -472 -359 -929 -691 -1278
-105 -110 -270 -257 -351 -312 -27 -19 -51 -36 -54 -40 -21 -25 -316 -198
-425 -249 -226 -106 -430 -175 -665 -225 -103 -21 -188 -34 -345 -51 -56 -6
-405 -7 -448 -1 -15 3 -60 7 -100 11 -40 4 -92 11 -117 17 -163 35 -295 -1
-389 -108 -57 -65 -80 -131 -77 -224 5 -175 128 -310 306 -334 25 -3 55 -8 66
-10 156 -31 358 -50 519 -49 111 0 339 11 372 17 10 2 50 7 88 12 39 4 72 8
75 9 3 1 30 5 60 10 30 5 57 9 60 10 3 1 25 5 50 9 25 4 81 17 125 27 44 11
87 21 95 23 106 25 347 107 480 163 782 333 1389 904 1758 1653 87 176 87 176
140 321 104 279 182 596 178 725 -5 207 -197 361 -397 319z"/>
<path d="M221 3437 c-78 -25 -141 -81 -178 -155 -25 -51 -28 -68 -28 -157 0
-88 3 -106 27 -155 49 -100 115 -151 230 -176 13 -3 1179 -5 2593 -6 2440 0
2572 1 2615 18 160 63 238 182 227 347 -9 138 -80 238 -198 282 -53 20 -81 20
-2641 21 -2564 1 -2587 1 -2647 -19z"/>
<path d="M1417 1480 c-86 -22 -177 -89 -221 -164 -126 -214 -16 -487 220 -546
246 -62 475 124 459 374 -12 193 -155 336 -344 342 -42 2 -93 -1 -114 -6z"/>
</g>
</svg>
